<?xml version="1.0" encoding="UTF-8" standalone="no"?>
<svg width="426px" height="83px" viewBox="0 0 426 83" version="1.1" xmlns="http://www.w3.org/2000/svg" xmlns:xlink="http://www.w3.org/1999/xlink" xmlns:sketch="http://www.bohemiancoding.com/sketch/ns">
    <!-- Generator: Sketch 3.3 (11970) - http://www.bohemiancoding.com/sketch -->
    <title>Imported Layers</title>
    <desc>Created with Sketch.</desc>
    <defs></defs>
    <g id="Page-1" stroke="none" stroke-width="1" fill="none" fill-rule="evenodd" sketch:type="MSPage">
        <path d="M0,82.273 L82.272,82.273 L82.272,0 L0,0 L0,82.273 Z M61.414,58.139 C61.084,58.265 58.811,58.354 60.42,58.536 C61.43,58.649 59.804,58.731 59.809,59.096 C60.142,59.086 60.646,59.726 60.776,59.706 C60.794,59.802 59.777,60.072 59.992,60.104 C60.857,60.226 59.261,60.283 59.366,60.49 C59.666,61.08 59.219,60.88 59.781,61.15 C60.081,61.295 59.992,61.824 59.795,61.868 C59.538,61.926 59.46,62.065 59.225,62.085 C59.192,62.3 58.997,62.399 58.739,62.436 C58.181,62.644 57.555,62.881 56.951,62.943 C56.562,62.981 56.579,63.019 56.193,62.944 C55.778,62.999 55.145,63.034 54.731,62.993 C54.388,63.077 49.266,63.377 48.838,63.319 C48.497,63.392 46.448,63.463 46.027,63.402 C45.603,63.484 42.047,63.579 41.679,63.536 C41.247,63.611 40.581,63.643 40.148,63.584 C39.716,63.669 39.048,63.685 38.612,63.634 C38.189,63.713 28.792,63.489 28.334,63.419 C27.891,63.474 25.694,63.399 25.257,63.325 C24.892,63.38 24.342,63.342 23.977,63.286 C23.551,63.346 22.888,63.313 22.474,63.197 C22.236,63.131 22.079,63.166 21.978,62.93 C21.893,62.734 21.915,62.614 21.759,62.531 C21.574,62.434 21.563,62.013 21.684,61.856 C21.481,61.425 21.764,60.618 21.601,60.023 C21.504,59.666 21.695,59.686 21.868,59.361 C21.664,59.375 21.62,59.013 21.644,58.944 C21.776,58.568 21.582,58.385 21.864,58.065 C22.033,57.875 21.956,57.718 22.259,57.718 C22.478,57.718 22.742,57.719 22.957,57.753 C23.425,57.717 24.032,57.74 24.497,57.812 C25.448,57.747 29.727,57.903 30.651,58.05 C31.534,57.987 32.591,58.05 33.472,58.155 C34.417,58.108 50.282,57.986 51.144,57.944 C52.09,57.9 53.156,57.757 54.098,57.85 C54.773,57.738 55.641,57.805 56.307,57.935 C56.922,57.913 57.21,57.69 57.811,57.722 C57.849,57.66 58.771,57.863 58.868,57.868 C58.952,57.725 59.777,57.85 59.97,57.861 C60.183,57.876 61.609,58.064 61.414,58.139 L61.414,58.139 Z M61.893,51.048 C61.931,51.175 61.997,51.286 62.094,51.381 C61.092,50.792 60.214,50.044 59.259,49.394 C59.333,49.731 61.37,50.839 61.246,51.068 C61.218,51.128 58.608,49.196 58.57,49.228 C58.407,49.346 59.009,49.964 58.882,49.935 C58.906,49.954 59.37,50.298 59.317,50.354 C59.21,50.394 62.112,52.568 61.857,52.874 C61.753,52.996 60.963,52.273 60.857,52.222 C60.932,52.345 61.02,52.456 61.123,52.559 C60.506,52.193 60.007,51.686 59.423,51.278 C59.501,51.423 59.609,51.546 59.746,51.645 C59.258,51.649 58.225,50.42 57.805,50.172 C57.669,50.098 57.023,49.47 56.927,49.509 C56.916,49.548 56.927,49.582 56.957,49.611 C56.713,49.496 56.501,49.344 56.32,49.153 C56.332,49.256 55.645,48.274 55.37,48.397 C55.538,48.559 55.706,48.723 55.87,48.888 C55.317,49.008 54.871,47.62 54.124,47.933 C54.185,47.907 57.209,50.774 57.29,50.974 C57.281,50.95 57.111,50.914 57.105,50.893 C57.289,51.506 58.142,52.079 58.563,52.527 C57.583,51.85 56.636,50.926 55.665,50.399 C55.284,50.192 55.163,49.794 54.797,50.001 C54.72,50.043 53.898,49.478 53.802,49.382 C53.784,49.532 53.81,49.676 53.876,49.813 C53.109,49.206 52.381,48.314 51.482,47.881 C51.689,48.176 51.885,48.42 51.941,48.547 C52.005,48.69 52.106,48.788 52.137,48.951 C50.844,47.915 49.56,46.847 48.329,45.737 C48.063,45.497 46.697,44.241 46.482,44.625 C46.044,44.228 43.113,41.721 42.511,41.599 C42.996,42 43.422,42.459 43.897,42.869 C43.782,42.957 42.538,41.875 42.363,41.727 C42.056,41.473 41.081,40.617 40.646,40.22 C40.294,39.899 39.956,39.583 39.616,39.269 C38.983,39.767 37.911,40.669 37.76,40.79 C37.577,40.939 37.366,41.029 37.185,41.22 C36.698,41.735 36.134,42.182 35.564,42.61 C34.841,43.15 34.2,43.79 33.469,44.345 C33.477,44.248 33.592,44.228 33.54,44.098 C33.351,44.248 33.162,44.385 32.988,44.539 C32.008,45.386 31.029,46.234 30.056,47.085 C29.325,47.726 28.619,48.394 27.874,49.018 C27.055,49.698 26.273,50.423 25.459,51.11 C24.634,51.81 26.607,50.529 25.845,51.3 C25.718,51.427 25.567,51.536 25.409,51.623 C25.212,51.734 25.073,51.905 24.899,52.039 C24.698,52.191 24.459,52.299 24.224,52.436 C24.247,52.171 24.245,52.179 23.984,52.101 C23.78,52.04 23.622,51.874 23.507,51.725 C23.338,51.506 22.865,50.589 22.709,49.919 C22.698,49.874 22.695,49.821 22.705,49.78 C22.834,49.273 22.696,48.792 22.529,48.314 C22.323,47.738 22.346,47.139 22.297,46.548 C22.269,46.181 22.564,45.95 22.785,45.716 C23.248,45.222 23.705,44.707 24.234,44.285 C24.578,44.009 24.908,43.693 25.329,43.501 C25.648,43.356 25.836,43.039 26.082,42.799 C26.37,42.516 26.698,42.269 26.97,41.981 C27.365,41.561 27.956,41.347 28.35,40.923 C28.695,40.553 32.161,37.673 32.636,37.272 C33.423,36.61 34.16,35.949 34.945,35.303 C34.833,35.208 34.724,35.113 34.61,35.015 C33.692,34.221 32.665,33.296 31.71,32.506 C30.764,31.722 29.834,30.874 28.889,30.054 C27.401,28.761 25.983,27.904 24.454,26.642 C23.664,25.99 21.945,24.816 21.77,23.773 C21.649,23.046 22.657,22.302 22.993,21.805 C22.98,21.825 24.506,19.44 24.986,19.638 C25.128,19.697 25.317,19.49 25.656,19.617 C26.216,19.826 26.595,20.319 27.012,20.711 C28.355,21.979 29.758,23.181 31.149,24.388 C34.036,26.894 36.792,29.095 39.61,31.539 C39.775,31.415 39.94,31.291 40.104,31.166 C40.682,30.726 41.29,30.319 41.875,29.885 C42.617,29.339 43.374,28.814 44.13,28.28 C44.488,28.026 44.864,27.792 45.213,27.526 C45.882,27.012 46.59,26.553 47.287,26.081 C48.225,25.449 49.171,24.829 50.117,24.204 C50.668,23.837 51.233,23.481 51.817,23.153 C52.069,23.013 52.276,22.784 52.567,22.692 C52.685,22.654 52.786,22.58 52.928,22.49 C53.73,21.981 54.551,21.501 55.384,21.04 C56.395,20.479 57.397,19.898 58.441,19.392 C58.717,19.257 59.007,19.052 59.392,19.043 C59.184,19.306 58.932,19.457 58.699,19.663 C58.925,19.778 59.338,19.425 59.384,19.511 C59.448,19.63 59.277,19.835 59.329,19.809 C59.48,19.735 59.614,19.61 59.818,19.597 C59.684,19.821 59.481,19.927 59.303,20.078 C59.577,20.026 59.784,19.789 60.131,19.762 C59.787,20.058 59.409,20.172 59.086,20.38 C58.845,20.54 58.575,20.662 58.317,20.8 C58.307,20.803 58.291,20.806 58.291,20.812 C58.242,21.089 57.961,21.148 57.8,21.333 C58.067,21.32 58.285,21.204 58.498,21.066 C58.583,21.132 58.456,21.177 58.489,21.257 C59.363,20.932 60.095,20.3 61.008,20.044 C60.676,20.257 60.343,20.479 60.006,20.684 C59.741,20.844 59.501,21.041 59.223,21.19 C58.991,21.312 58.736,21.392 58.521,21.55 C58.447,21.605 58.289,21.658 58.36,21.774 C58.435,21.908 58.574,21.874 58.707,21.796 C59.107,21.567 59.51,21.355 59.913,21.138 C59.942,21.122 59.985,21.136 60.022,21.136 C59.912,21.485 59.563,21.611 59.354,21.908 C59.599,21.871 59.74,21.697 59.944,21.635 C60.3,21.531 60.634,21.38 61.025,21.373 C61.281,21.367 61.531,21.19 61.811,21.129 C61.597,21.277 61.374,21.421 61.165,21.583 C61.099,21.635 60.932,21.631 61,21.807 C61.079,22.01 61.205,21.894 61.313,21.853 C61.434,21.805 61.554,21.74 61.673,21.682 C61.712,21.661 61.745,21.658 61.763,21.706 C61.777,21.746 61.777,21.784 61.725,21.796 C61.474,21.843 61.288,22.019 61.091,22.161 C60.893,22.306 60.706,22.469 60.512,22.629 C60.547,22.76 60.696,22.518 60.721,22.681 C60.741,22.812 60.61,22.817 60.552,22.843 C59.588,23.27 58.806,23.986 57.928,24.545 C57.552,24.783 56.52,25.409 56.39,25.487 C56.008,25.717 55.632,25.961 55.259,26.207 C55.211,26.237 55.093,26.242 55.157,26.366 C55.216,26.481 55.277,26.442 55.364,26.4 C55.915,26.136 56.457,25.841 56.923,25.448 C57.216,25.202 57.57,25.115 57.871,24.904 C58.247,24.642 59.613,23.795 60.177,23.46 C60.478,23.28 60.465,23.259 60.756,23.379 C60.68,23.499 60.527,23.515 60.44,23.614 C60.164,23.906 59.86,24.159 59.553,24.406 C59.261,24.643 58.954,24.86 58.644,25.067 C58.514,25.152 58.399,25.239 58.326,25.388 C59.278,24.934 60.115,24.272 61.053,23.789 C60.753,24.125 60.332,24.285 59.974,24.537 C59.415,24.934 58.766,25.19 58.275,25.687 C58.149,25.814 57.954,25.774 57.811,25.899 C57.259,26.361 56.572,26.618 56.015,27.068 C55.81,27.236 55.578,27.368 55.381,27.546 C55.303,27.614 55.23,27.692 55.122,27.715 C54.588,27.832 54.287,28.317 53.83,28.559 C53.541,28.713 53.292,28.953 53.004,29.087 C52.659,29.253 52.354,29.481 52.052,29.69 C51.56,30.032 51.089,30.413 50.596,30.762 C50.332,30.946 50.001,31.034 49.797,31.312 L49.8,31.306 C49.387,31.475 49.074,31.795 48.709,32.036 C48.104,32.441 47.52,32.87 46.954,33.329 C46.839,33.426 46.735,33.534 46.615,33.629 L46.625,33.617 C46.223,33.64 46.103,34.046 45.747,34.193 C45.904,34.278 45.325,34.533 45.284,34.563 C45,34.759 44.669,34.715 44.444,34.97 C44.345,35.08 44.14,35.2 43.957,35.309 C47.361,38.204 50.803,41.032 54.068,43.99 C55.808,45.567 57.66,47.043 59.518,48.507 C60.647,49.399 63.658,52.201 64.012,52.459 C63.876,52.58 62.122,51.235 61.893,51.048 L61.893,51.048 Z M183.457,50.796 L200.488,50.796 L200.488,58.062 L175.179,58.062 L175.179,23.88 L183.457,23.88 L183.457,50.796 L183.457,50.796 Z M141.031,58.062 L166.797,58.062 L166.797,50.898 L149.309,50.898 L149.309,44.629 L164.567,44.629 L164.567,37.617 L149.309,37.617 L149.309,31.044 L166.797,31.044 L166.797,23.88 L141.031,23.88 L141.031,58.062 L141.031,58.062 Z M207.553,58.062 L233.318,58.062 L233.318,50.898 L215.83,50.898 L215.83,44.629 L231.088,44.629 L231.088,37.617 L215.83,37.617 L215.83,31.044 L233.318,31.044 L233.318,23.88 L207.553,23.88 L207.553,58.062 L207.553,58.062 Z M129.273,26.788 C131.711,29.08 133.055,32.209 133.055,35.598 C133.055,38.134 132.155,40.69 130.136,43.885 L121.206,58.062 L111.917,58.062 L118.395,47.869 L118.448,47.786 L118.203,47.772 C110.733,47.326 105.514,42.383 105.514,35.75 C105.514,28.432 111.316,23.12 119.309,23.12 C123.218,23.12 126.757,24.423 129.273,26.788 L129.273,26.788 Z M125.384,35.446 C125.384,32.274 122.671,29.693 119.335,29.693 C115.999,29.693 113.285,32.274 113.285,35.446 C113.285,38.62 115.999,41.201 119.335,41.201 C122.671,41.201 125.384,38.62 125.384,35.446 L125.384,35.446 Z M260.158,42.397 L247.815,23.88 L241.699,23.88 L241.699,58.062 L249.926,58.062 L249.926,40.329 L257.887,52.637 L262.43,52.637 L270.338,40.434 L270.338,58.062 L278.617,58.062 L278.617,23.88 L272.451,23.88 L260.158,42.397 L260.158,42.397 Z M360.719,31.247 L371.719,31.247 L371.719,58.062 L379.998,58.062 L379.998,31.247 L390.945,31.247 L390.945,23.88 L360.719,23.88 L360.719,31.247 L360.719,31.247 Z M414.918,38.019 L410.1,36.903 C407.66,36.377 406.035,35.601 406.035,33.52 C406.035,32.395 406.526,31.468 407.455,30.841 C408.336,30.244 409.596,29.929 411.096,29.929 C414.321,29.929 416.239,31.396 416.791,34.288 L425.131,34.288 C424.84,31.582 422.928,23.12 410.539,23.12 C406.561,23.12 403.174,24.161 400.744,26.129 C398.293,28.117 396.996,30.918 396.996,34.23 C396.996,39.592 400.133,42.769 406.869,44.227 L412.547,45.493 C415.078,45.974 416.309,46.981 416.309,48.574 C416.309,50.599 414.483,51.76 411.299,51.76 C407.239,51.76 404.557,49.987 403.932,46.894 L395.643,46.894 C396.051,50.788 397.768,53.821 400.744,55.908 C403.414,57.781 406.977,58.772 411.045,58.772 C419.643,58.772 425.195,54.43 425.195,47.713 C425.195,42.486 422.121,39.587 414.918,38.019 L414.918,38.019 Z M287.963,58.062 L313.729,58.062 L313.729,50.898 L296.24,50.898 L296.24,44.629 L311.498,44.629 L311.498,37.617 L296.24,37.617 L296.24,31.044 L313.729,31.044 L313.729,23.88 L287.963,23.88 L287.963,58.062 L287.963,58.062 Z M345.276,43.539 L328.44,23.88 L322.111,23.88 L322.111,58.062 L330.389,58.062 L330.389,38.915 L347.123,58.062 L353.555,58.062 L353.555,23.88 L345.276,23.88 L345.276,43.539 L345.276,43.539 Z" id="Imported-Layers" fill="#000203" sketch:type="MSShapeGroup"></path>
    </g>
</svg>