<?xml version="1.0" encoding="utf-8"?>
<!-- Generator: Adobe Illustrator 28.0.0, SVG Export Plug-In . SVG Version: 6.00 Build 0)  -->
<svg version="1.1" id="Layer_1" xmlns="http://www.w3.org/2000/svg" xmlns:xlink="http://www.w3.org/1999/xlink" x="0px" y="0px"
	 viewBox="0 0 152.3 162.9" style="enable-background:new 0 0 152.3 162.9;" xml:space="preserve">
<style type="text/css">
	.st0{fill:#1B44DA;}
</style>
<g id="Layer_2_00000026146759902140345850000006840100067677726118_">
	<g id="Layer_1-2">
		<path class="st0" d="M132.7,25.7c-11.1,0-19.1,9.8-27.3,20.8C100.3,23.2,94.6,0,76.6,0S52.9,23.2,47.8,46.5
			c-8.2-11-16.2-20.8-27.3-20.8c-7.1,0-19.1,4.8-19.1,22.9l0.1,32.9c0,17.7,9.5,22.1,15.2,23.6l0,0c9.8,2.5,33.4,4.9,60,4.9
			s50.2-2.4,60-4.9l0,0c5.7-1.5,15.1-5.8,15.1-23.6l0.1-32.9C151.8,30.5,139.8,25.7,132.7,25.7 M76.6,10.2
			c10.8,0,14.9,21.3,20.7,46.9c-6.3,7.7-13,14-20.7,14s-14.4-6.3-20.7-14C61.3,33.2,65.4,10.2,76.6,10.2 M11.7,81.5l-0.1-32.9
			c0-11.4,6.2-12.7,8.8-12.7c7.9,0,16.3,13.1,24.4,23.7c-5.7,23.9-11.7,38.5-26,35.5C15.1,94.1,11.6,91.7,11.7,81.5 M39.6,98.1
			c6.3-6.8,10.3-17.5,13.4-28.8c6.6,6.9,14.2,12.1,23.6,12.1s17-5.2,23.6-12.1c3.1,11.3,7.1,22,13.4,28.8c-11,1-24.2,1.6-37,1.6
			S50.6,99.1,39.6,98.1 M141.5,81.5c0,10.2-3.5,12.6-7.2,13.6c-14.2,3-20.2-11.6-25.9-35.5c8.1-10.5,16.5-23.7,24.4-23.7
			c2.7,0,8.9,1.2,8.9,12.7L141.5,81.5z"/>
		<path class="st0" d="M0.7,155.6c-0.2,0-0.3-0.1-0.5-0.2c-0.1-0.1-0.2-0.3-0.2-0.5c0-0.1,0-0.2,0.1-0.3l8.1-21.5
			c0.1-0.2,0.2-0.4,0.4-0.6c0.2-0.2,0.5-0.2,0.7-0.2h3c0.3,0,0.5,0.1,0.7,0.2c0.2,0.2,0.3,0.4,0.4,0.6l8.1,21.5c0,0.1,0,0.2,0,0.3
			c0,0.2-0.1,0.4-0.2,0.5c-0.1,0.1-0.3,0.2-0.5,0.2h-2.3c-0.2,0-0.5-0.1-0.6-0.2c-0.1-0.1-0.2-0.2-0.3-0.4l-1.7-4.4H5.6L3.9,155
			c-0.1,0.1-0.2,0.3-0.3,0.4c-0.2,0.2-0.4,0.2-0.7,0.2L0.7,155.6z M6.7,147.2H15l-4.2-11.1L6.7,147.2z"/>
		<path class="st0" d="M25,161.9c-0.2,0-0.4-0.1-0.5-0.2c-0.1-0.1-0.2-0.3-0.2-0.6V139c0-0.4,0.3-0.7,0.7-0.8c0,0,0.1,0,0.1,0h2.1
			c0.4,0,0.7,0.3,0.8,0.7c0,0,0,0.1,0,0.1v1.4c0.6-0.7,1.3-1.3,2.1-1.8c1-0.5,2.1-0.8,3.3-0.7c1.1,0,2.1,0.2,3.1,0.6
			c0.8,0.4,1.6,1,2.2,1.7c0.6,0.7,1,1.6,1.3,2.5c0.3,1,0.5,2,0.5,3.1c0,0.4,0,0.8,0,1.2s0,0.8,0,1.2c0,1-0.2,2-0.5,3
			c-0.3,0.9-0.7,1.7-1.3,2.5c-0.6,0.7-1.3,1.3-2.2,1.7c-1,0.4-2.1,0.6-3.2,0.6c-1.1,0-2.2-0.2-3.1-0.7c-0.8-0.4-1.5-1-2.1-1.7v7.6
			c0,0.2-0.1,0.4-0.2,0.6c-0.2,0.2-0.4,0.2-0.6,0.2H25z M32.3,152.8c1.6,0.1,3.2-0.9,3.7-2.5c0.3-0.8,0.4-1.6,0.5-2.4
			c0.1-0.6,0.1-1.3,0-1.9c0-0.8-0.2-1.6-0.5-2.4c-0.7-2.1-3-3.2-5.1-2.4c-1.1,0.4-2,1.3-2.4,2.4c-0.3,0.7-0.4,1.5-0.5,2.2
			c0,0.4,0,0.8,0,1.3s0,0.9,0,1.3c0,0.7,0.2,1.5,0.5,2.1c0.3,0.7,0.8,1.3,1.4,1.7C30.6,152.6,31.4,152.8,32.3,152.8L32.3,152.8z"/>
		<path class="st0" d="M44.4,161.9c-0.2,0-0.4-0.1-0.5-0.2c-0.1-0.1-0.2-0.3-0.2-0.6V139c0-0.4,0.3-0.7,0.7-0.8c0,0,0.1,0,0.1,0h2.1
			c0.4,0,0.7,0.3,0.8,0.7c0,0,0,0.1,0,0.1v1.4c0.6-0.7,1.3-1.3,2.1-1.8c1-0.5,2.1-0.8,3.3-0.7c1.1,0,2.1,0.2,3.1,0.6
			c0.9,0.4,1.6,1,2.2,1.7c0.6,0.7,1,1.6,1.3,2.5c0.3,1,0.5,2,0.5,3.1c0,0.4,0,0.8,0,1.2s0,0.8,0,1.2c0,1-0.2,2-0.5,3
			c-0.3,0.9-0.8,1.8-1.3,2.5c-0.6,0.7-1.3,1.3-2.2,1.7c-1,0.4-2.1,0.6-3.2,0.6c-1.1,0-2.2-0.2-3.1-0.7c-0.8-0.4-1.5-1-2.1-1.8v7.6
			c0,0.2-0.1,0.4-0.2,0.6c-0.2,0.2-0.4,0.2-0.6,0.2H44.4z M51.8,152.8c1.7,0.2,3.2-0.9,3.7-2.5c0.3-0.8,0.4-1.6,0.5-2.4
			c0.1-0.6,0.1-1.3,0-1.9c0-0.8-0.2-1.6-0.5-2.4c-0.7-2.1-3-3.2-5.1-2.4c-1.1,0.4-2,1.3-2.4,2.4c-0.3,0.7-0.4,1.5-0.5,2.2
			c0,0.4,0,0.8,0,1.3s0,0.9,0,1.3c0,0.7,0.2,1.5,0.5,2.1c0.3,0.7,0.8,1.3,1.4,1.7C50.1,152.6,50.9,152.8,51.8,152.8z"/>
		<path class="st0" d="M71.7,155.9c-1.7,0-3.4-0.3-5-0.9c-1.2-0.5-2.3-1.3-3.1-2.3c-0.7-0.9-1.1-2-1.1-3.1c0-0.2,0.1-0.3,0.2-0.5
			c0.1-0.1,0.3-0.2,0.5-0.2h2.4c0.2,0,0.4,0.1,0.6,0.2c0.1,0.1,0.2,0.3,0.3,0.4c0.2,0.5,0.4,1,0.8,1.4c0.5,0.5,1,0.9,1.7,1.2
			c0.9,0.3,1.8,0.5,2.8,0.5c1.4,0.1,2.7-0.2,3.9-0.9c0.8-0.5,1.3-1.5,1.2-2.5c0-0.6-0.2-1.2-0.7-1.7c-0.6-0.5-1.3-0.9-2.1-1.2
			c-0.9-0.4-2.1-0.7-3.6-1.1c-1.4-0.4-2.8-0.9-4.1-1.5c-1-0.5-1.8-1.2-2.5-2.1c-0.6-1-0.9-2.1-0.8-3.2c0-1.2,0.3-2.3,1-3.3
			c0.7-1,1.7-1.8,2.9-2.3c2.6-1,5.5-1.1,8.2-0.3c1,0.3,1.9,0.8,2.7,1.5c0.7,0.6,1.2,1.2,1.6,2c0.4,0.6,0.5,1.4,0.6,2.1
			c0,0.2-0.1,0.3-0.2,0.4c-0.1,0.1-0.3,0.2-0.5,0.2H77c-0.2,0-0.4-0.1-0.5-0.1c-0.2-0.1-0.3-0.3-0.4-0.5c-0.2-0.8-0.7-1.6-1.4-2
			c-0.9-0.6-2-0.9-3.2-0.8c-1.1,0-2.2,0.2-3.2,0.8c-0.8,0.5-1.3,1.4-1.2,2.4c0,0.6,0.2,1.2,0.6,1.7c0.5,0.5,1.2,0.9,1.9,1.2
			c1.1,0.4,2.2,0.8,3.4,1.1c1.5,0.4,3.1,0.9,4.5,1.5c1,0.4,1.9,1.1,2.5,2c0.6,1,0.9,2.1,0.8,3.2c0,1.3-0.4,2.6-1.2,3.6
			c-0.8,1.1-1.9,1.9-3.2,2.3C75,155.7,73.3,155.9,71.7,155.9z"/>
		<path class="st0" d="M84.4,135.2c-0.2,0-0.4-0.1-0.6-0.2c-0.1-0.1-0.2-0.3-0.2-0.6v-2.1c0-0.2,0.1-0.4,0.2-0.6
			c0.1-0.2,0.4-0.2,0.6-0.2h2.5c0.2,0,0.4,0.1,0.6,0.2c0.1,0.1,0.2,0.3,0.2,0.6v2.1c0,0.2-0.1,0.4-0.2,0.6c-0.2,0.1-0.4,0.2-0.6,0.2
			H84.4z M84.6,155.6c-0.4,0-0.8-0.3-0.8-0.7c0,0,0,0,0-0.1V139c0-0.2,0.1-0.4,0.2-0.6c0.2-0.1,0.4-0.2,0.6-0.2h2.2
			c0.2,0,0.4,0.1,0.5,0.2c0.1,0.1,0.2,0.3,0.2,0.6v15.8c0,0.2-0.1,0.4-0.2,0.6c-0.1,0.1-0.3,0.2-0.5,0.2H84.6z"/>
		<path class="st0" d="M98.9,162.9c-1.3,0-2.6-0.2-3.8-0.6c-0.9-0.3-1.7-0.8-2.4-1.5c-0.5-0.5-0.9-1.1-1.2-1.7
			c-0.2-0.4-0.3-0.9-0.4-1.4c0-0.2,0-0.4,0.2-0.6c0.1-0.2,0.3-0.2,0.6-0.2h2.3c0.2,0,0.4,0,0.5,0.1c0.2,0.1,0.3,0.3,0.3,0.6
			c0.2,0.3,0.3,0.7,0.6,1c0.3,0.4,0.7,0.7,1.1,0.9c0.7,0.3,1.4,0.4,2.1,0.4c0.8,0,1.6-0.1,2.4-0.4c0.6-0.3,1.2-0.7,1.5-1.3
			c0.4-0.8,0.6-1.7,0.5-2.6v-2.2c-0.6,0.7-1.3,1.2-2.1,1.6c-1,0.5-2.1,0.7-3.2,0.6c-1.1,0-2.1-0.2-3.1-0.6c-0.8-0.4-1.6-1-2.2-1.7
			c-0.6-0.8-1-1.6-1.3-2.5c-0.3-1-0.5-2-0.5-3.1c0-0.6,0-1.2,0-1.8c0-1,0.2-2,0.5-3c0.3-0.9,0.7-1.8,1.3-2.5
			c0.6-0.7,1.3-1.3,2.2-1.7c1-0.4,2.1-0.7,3.1-0.6c1.1,0,2.2,0.2,3.2,0.7c0.8,0.4,1.6,1.1,2.2,1.8v-1.4c0-0.2,0.1-0.4,0.2-0.6
			c0.1-0.2,0.4-0.2,0.6-0.2h2.1c0.4,0,0.8,0.3,0.8,0.8c0,0,0,0,0,0v16.1c0,1.4-0.2,2.8-0.8,4.1c-0.5,1.2-1.5,2.1-2.6,2.7
			C102.1,162.6,100.5,163,98.9,162.9z M98.8,152.5c0.9,0,1.7-0.2,2.4-0.7c0.6-0.5,1.1-1.1,1.4-1.8c0.3-0.7,0.5-1.4,0.5-2.2
			c0-0.3,0-0.7,0-1.1c0-0.4,0-0.8,0-1.1c0-0.8-0.2-1.5-0.5-2.2c-0.3-0.7-0.8-1.3-1.4-1.8c-0.7-0.5-1.6-0.7-2.4-0.7
			c-0.9,0-1.7,0.2-2.4,0.7c-0.6,0.4-1.1,1.1-1.3,1.8c-0.3,0.8-0.4,1.6-0.5,2.4c0,0.6,0,1.1,0,1.7c0,0.8,0.2,1.6,0.5,2.4
			c0.2,0.7,0.7,1.3,1.3,1.8C97,152.3,97.9,152.6,98.8,152.5z"/>
		<path class="st0" d="M111.6,155.6c-0.2,0-0.4-0.1-0.6-0.2c-0.1-0.1-0.2-0.3-0.2-0.6V139c0-0.2,0.1-0.4,0.2-0.6
			c0.2-0.1,0.4-0.2,0.6-0.2h2.1c0.4,0,0.7,0.3,0.8,0.7c0,0,0,0.1,0,0.1v1.4c0.6-0.7,1.4-1.4,2.2-1.8c1-0.5,2.2-0.8,3.4-0.7
			c1.3,0,2.5,0.3,3.6,0.9c1,0.6,1.8,1.5,2.3,2.6c0.6,1.3,0.8,2.6,0.8,4v9.4c0,0.2-0.1,0.4-0.2,0.6c-0.2,0.1-0.4,0.2-0.6,0.2h-2.3
			c-0.4,0-0.8-0.3-0.8-0.7c0,0,0,0,0,0v-9.2c0.1-1.2-0.3-2.4-1-3.3c-0.8-0.8-1.9-1.3-3-1.2c-1.1,0-2.2,0.4-3,1.2
			c-0.8,0.9-1.2,2.1-1.2,3.3v9.2c0,0.2-0.1,0.4-0.2,0.6c-0.2,0.1-0.4,0.2-0.6,0.2L111.6,155.6z"/>
		<path class="st0" d="M135.5,155.9c-1.1,0-2.1-0.2-3.1-0.7c-0.9-0.4-1.6-1-2.2-1.8c-0.5-0.7-0.8-1.6-0.8-2.6c0-1.5,0.7-2.8,1.9-3.7
			c1.5-1,3.2-1.6,4.9-1.8l4.7-0.7v-0.8c0-0.9-0.2-1.7-0.8-2.3c-0.7-0.6-1.7-0.9-2.7-0.8c-0.8,0-1.5,0.1-2.2,0.5
			c-0.5,0.3-1,0.8-1.2,1.4c-0.1,0.3-0.4,0.4-0.7,0.4h-2.1c-0.2,0-0.4-0.1-0.6-0.2c-0.1-0.1-0.2-0.3-0.2-0.5c0.1-0.4,0.2-0.9,0.4-1.2
			c0.3-0.6,0.7-1.1,1.2-1.5c0.6-0.5,1.4-0.9,2.1-1.2c1-0.3,2.1-0.5,3.1-0.5c1.2,0,2.3,0.1,3.5,0.5c0.8,0.3,1.6,0.8,2.2,1.4
			c0.5,0.6,1,1.3,1.2,2c0.3,0.7,0.4,1.5,0.4,2.3v10.6c0,0.2-0.1,0.4-0.2,0.6c-0.1,0.1-0.4,0.2-0.6,0.2h-2.1c-0.2,0-0.4-0.1-0.6-0.2
			c-0.1-0.1-0.2-0.3-0.2-0.6v-1.4c-0.3,0.5-0.7,0.9-1.2,1.2c-0.5,0.4-1.2,0.7-1.8,0.9C137.3,155.8,136.4,155.9,135.5,155.9z
			 M136.4,153.1c0.8,0,1.6-0.2,2.3-0.6c0.7-0.4,1.3-1,1.6-1.7c0.4-0.9,0.7-1.9,0.6-2.8v-0.8l-3.6,0.6c-1.1,0.1-2.3,0.4-3.2,1
			c-0.6,0.4-1.1,1-1.1,1.8c0,0.5,0.2,1,0.5,1.4c0.4,0.4,0.8,0.7,1.3,0.8C135.4,153,135.9,153.1,136.4,153.1L136.4,153.1z"/>
		<path class="st0" d="M149.3,155.6c-0.2,0-0.4-0.1-0.6-0.2c-0.1-0.1-0.2-0.3-0.2-0.6v-22.1c0-0.4,0.3-0.7,0.7-0.8c0,0,0,0,0.1,0
			h2.2c0.2,0,0.4,0.1,0.6,0.2c0.1,0.1,0.2,0.3,0.2,0.6v22.1c0,0.2-0.1,0.4-0.2,0.6c-0.1,0.1-0.3,0.2-0.6,0.2H149.3z"/>
	</g>
</g>
</svg>
