<svg height="121" viewBox="0 0 306 121" width="306" xmlns="http://www.w3.org/2000/svg"><path d="m234.776293 91.5391304c1.380712 0 2.5 1.1192882 2.5 2.5 0 .1091942-.007154.2182711-.021416.3265299l-3.222487 24.4608697c-.163852 1.243749-1.224088 2.17347-2.478584 2.17347h-25.138075c-1.380712 0-2.5-1.119288-2.5-2.5 0-.109194.007154-.218271.021416-.32653l3.222487-24.4608694c.163852-1.243749 1.224088-2.1734702 2.478584-2.1734702zm-146.8273325 0c1.3807119 0 2.5 1.1192882 2.5 2.5 0 .1089221-.0071184.2177277-.0213097.3257213l-3.2143694 24.4608693c-.1634868 1.24411-1.2238844 2.174279-2.4786903 2.174279h-81.4251856c-1.38071188 0-2.5-1.119288-2.5-2.5 0-.108922.0071184-.217728.02130969-.325721l3.2143694-24.4608699c.16348681-1.2441101 1.22388441-2.1742787 2.47869031-2.1742787zm101.5526935 0c1.380712 0 2.5 1.1192882 2.5 2.5 0 .1089221-.007118.2177277-.021309.3257213l-3.21437 24.4608693c-.163486 1.24411-1.223884 2.174279-2.47869 2.174279h-81.425186c-1.380711 0-2.5-1.119288-2.5-2.5 0-.108922.007119-.217728.02131-.325721l3.21437-24.4608699c.163486-1.2441101 1.223884-2.1742787 2.47869-2.1742787zm107.899738-46.2956521c1.380712 0 2.5 1.1192881 2.5 2.5 0 .108922-.007119.2177276-.02131.3257213l-3.214369 24.4608695c-.163487 1.2441101-1.223885 2.1742787-2.478691 2.1742787h-81.425185c-1.380712 0-2.5-1.1192881-2.5-2.5 0-.108922.007118-.2177277.021309-.3257213l3.21437-24.4608695c.163487-1.2441101 1.223884-2.1742787 2.47869-2.1742787zm-203.1053881 0c1.3807118 0 2.5 1.1192881 2.5 2.5 0 .108922-.0071184.2177276-.0213097.3257213l-3.2143694 24.4608695c-.1634868 1.2441101-1.2238844 2.1742787-2.4786903 2.1742787h-81.42518564c-1.38071187 0-2.5-1.1192881-2.5-2.5 0-.108922.00711841-.2177277.0213097-.3257213l3.21436944-24.4608695c.1634868-1.2441101 1.2238844-2.1742787 2.4786903-2.1742787zm101.5526941 0c1.380712 0 2.5 1.1192881 2.5 2.5 0 .108922-.007119.2177276-.02131.3257213l-3.214369 24.4608695c-.163487 1.2441101-1.223885 2.1742787-2.478691 2.1742787h-81.425185c-1.380712 0-2.5-1.1192881-2.5-2.5 0-.108922.007118-.2177277.021309-.3257213l3.21437-24.4608695c.163487-1.2441101 1.223884-2.1742787 2.47869-2.1742787zm106.841897-45.2434783c1.380711 0 2.5 1.11928813 2.5 2.5 0 .10892206-.007119.21772768-.02131.3257213l-3.21437 24.4608696c-.163486 1.2441101-1.223884 2.1742787-2.47869 2.1742787h-81.425186c-1.380711 0-2.5-1.1192882-2.5-2.5 0-.1089221.007119-.2177277.02131-.3257213l3.21437-24.4608696c.163486-1.24411009 1.223884-2.1742787 2.47869-2.1742787zm-203.1053883 0c1.3807123 0 2.5000003 1.11928813 2.5000003 2.5 0 .10892206-.007119.21772768-.02131.3257213l-3.2143694 24.4608696c-.1634868 1.2441101-1.2238844 2.1742787-2.4786903 2.1742787h-81.4251856c-1.3807119 0-2.5-1.1192882-2.5-2.5 0-.1089221.0071184-.2177277.0213097-.3257213l3.2143694-24.4608696c.1634868-1.24411009 1.2238844-2.1742787 2.4786903-2.1742787zm101.5526943 0c1.380711 0 2.5 1.11928813 2.5 2.5 0 .10892206-.007119.21772768-.02131.3257213l-3.21437 24.4608696c-.163486 1.2441101-1.223884 2.1742787-2.47869 2.1742787h-81.425185c-1.380712 0-2.5-1.1192882-2.5-2.5 0-.1089221.007118-.2177277.021309-.3257213l3.21437-24.4608696c.163486-1.24411009 1.223884-2.1742787 2.47869-2.1742787z" fill-rule="evenodd"/></svg>