<svg xmlns="http://www.w3.org/2000/svg" width="810" viewBox="0 0 810 810" height="810" version="1.0"><defs><clipPath id="a"><path d="M 297 313.488281 L 332 313.488281 L 332 456 L 297 456 Z M 297 313.488281"/></clipPath><clipPath id="b"><path d="M 626 362 L 729 362 L 729 496.488281 L 626 496.488281 Z M 626 362"/></clipPath></defs><path fill="#FFF" d="M-81 -81H891V891H-81z"/><path fill="#FFF" d="M-81 -81H891V891H-81z"/><path fill="#A698EE" d="M 81 444.464844 L 85.820312 412.601562 C 100.789062 423.136719 114.992188 428.660156 127.167969 428.660156 C 138.078125 428.660156 142.644531 422.886719 142.644531 416.867188 C 142.644531 411.347656 139.347656 406.328125 126.914062 402.566406 L 118.542969 399.804688 C 94.191406 391.777344 84.300781 375.972656 84.300781 357.152344 C 84.300781 333.070312 103.324219 314.753906 131.734375 314.753906 C 144.164062 314.753906 157.609375 318.015625 171.816406 324.289062 L 167.25 355.648438 C 153.296875 348.625 141.121094 344.609375 131.480469 344.609375 C 122.351562 344.609375 118.039062 349.628906 118.039062 355.398438 C 118.039062 361.167969 121.589844 365.683594 133.765625 369.449219 L 141.882812 372.207031 C 167.757812 380.488281 177.394531 397.296875 177.394531 414.609375 C 177.394531 436.6875 161.921875 458.515625 128.183594 458.515625 C 109.160156 458.515625 93.683594 452.242188 81 444.464844" fill-rule="evenodd"/><path fill="#A698EE" d="M 254.300781 410.140625 C 254.300781 398.832031 245.671875 390.035156 234.507812 390.035156 C 223.089844 390.035156 214.71875 398.832031 214.71875 410.140625 C 214.71875 421.453125 223.34375 430 234.507812 430 C 245.671875 430 254.300781 421.453125 254.300781 410.140625 M 286.269531 362.632812 L 286.269531 455.636719 L 255.566406 455.636719 L 255.566406 445.585938 C 249.226562 453.375 240.089844 458.152344 228.167969 458.152344 C 203.300781 458.152344 183.003906 437.039062 183.003906 410.140625 C 183.003906 383.246094 203.554688 362.132812 228.167969 362.132812 C 238.824219 362.132812 247.449219 366.152344 253.792969 372.6875 L 253.792969 362.382812 L 286.269531 362.382812 Z M 286.269531 362.632812" fill-rule="evenodd"/><g clip-path="url(#a)"><path fill="#A698EE" d="M 331.664062 313.488281 L 297.300781 317.253906 L 297.300781 455.621094 L 331.664062 455.621094 Z M 331.664062 313.488281" fill-rule="evenodd"/></g><path fill="#A698EE" d="M 384.628906 391.09375 L 384.628906 416.457031 C 384.628906 423.992188 388.1875 428.007812 396.054688 428.007812 C 399.609375 428.007812 403.671875 427.253906 406.71875 426 L 406.71875 453.621094 C 401.640625 455.632812 394.53125 456.886719 386.917969 456.886719 C 362.035156 456.886719 350.355469 442.824219 350.355469 420.976562 L 350.355469 390.84375 L 339.441406 390.84375 L 339.441406 364.476562 L 350.105469 364.476562 L 350.105469 348.90625 L 384.378906 332.835938 L 384.378906 364.476562 L 406.464844 364.476562 L 406.464844 391.09375 Z M 384.628906 391.09375" fill-rule="evenodd"/><path fill="#A698EE" d="M 482.769531 367.523438 C 482.769531 355.726562 473.125 347.445312 460.179688 347.445312 L 452.308594 347.445312 L 452.308594 388.105469 L 460.179688 388.105469 C 473.125 387.855469 482.769531 379.570312 482.769531 367.523438 M 518.304688 367.523438 C 518.304688 396.386719 495.460938 417.46875 463.730469 417.46875 L 452.308594 417.46875 L 452.308594 455.621094 L 417.027344 455.621094 L 417.027344 317.828125 L 463.730469 317.828125 C 495.207031 317.828125 518.304688 338.660156 518.304688 367.523438" fill-rule="evenodd"/><path fill="#A698EE" d="M 589.261719 410.140625 C 589.261719 398.832031 580.644531 390.035156 569.484375 390.035156 C 558.074219 390.035156 549.710938 398.832031 549.710938 410.140625 C 549.710938 421.453125 558.328125 430 569.484375 430 C 580.644531 430 589.261719 421.453125 589.261719 410.140625 M 621.210938 362.632812 L 621.210938 455.636719 L 590.277344 455.636719 L 590.277344 445.585938 C 583.9375 453.375 574.808594 458.152344 562.894531 458.152344 C 538.046875 458.152344 517.761719 437.039062 517.761719 410.140625 C 517.761719 383.246094 538.300781 362.132812 562.894531 362.132812 C 573.542969 362.132812 582.164062 366.152344 588.503906 372.6875 L 588.503906 362.382812 L 621.210938 362.382812 Z M 621.210938 362.632812" fill-rule="evenodd"/><g clip-path="url(#b)"><path fill="#A698EE" d="M 693.511719 362.671875 L 677.546875 414.667969 L 661.578125 362.671875 L 626.09375 362.671875 L 661.070312 452.601562 L 640.03125 496.308594 L 675.773438 496.308594 L 729 362.671875 Z M 693.511719 362.671875" fill-rule="evenodd"/></g></svg>