<svg width="186" height="39" viewBox="0 0 186 39" fill="none" xmlns="http://www.w3.org/2000/svg">
<g clip-path="url(#clip0)">
<path d="M25 28.5H28.5C29 28.5 29.3 28.1 29.3 27.7V11.4C29.3 10.9 28.9 10.6 28.5 10.6H25C24.5 10.6 24.2 11 24.2 11.4V27.7C24.2 28.1 24.6 28.5 25 28.5ZM6 9V18.5V20.5V21.5H8L6 24.4L4 27.3L2 24.4L0 21.5H2.1V20.5V18.5V9C2.1 4.1 6.1 0 11.1 0H32.2C37.1 0 41.2 4 41.2 9H37.3C37.3 6.2 35 4 32.3 4H11C8.3 3.9 6 6.2 6 9ZM39.1 11.7L41.1 14.6L43.1 17.5H41.1V18.5V19.4V30C41.1 34.9 37.1 39 32.1 39H11C6.1 39 2 35 2 30H6C6 32.8 8.3 35 11 35H32.1C34.9 35 37.1 32.7 37.1 30V19.5V18.6V17.6H35.1L37.1 14.7L39.1 11.7ZM14.6 28.5H18.1C18.6 28.5 18.9 28.1 18.9 27.7V17.3C18.9 16.8 18.5 16.5 18.1 16.5H14.6C14.1 16.5 13.8 16.9 13.8 17.3V27.6C13.8 28.1 14.2 28.5 14.6 28.5Z" fill="url(#paint0_linear)"/>
<path d="M56.1 26.35C56.1 26.05 56.2 25.65 56.5 25.35C56.7 25.05 57 24.85 57.2 24.65C57.5 24.55 57.6 24.45 57.6 24.55C58.2 25.45 59.1 26.25 60.2 26.85C61.3 27.45 62.6 27.75 63.9 27.75C65.4 27.75 66.5 27.45 67.3 26.85C68.1 26.25 68.5 25.45 68.5 24.35C68.5 23.85 68.4 23.45 68.2 23.15C68 22.75 67.8 22.45 67.5 22.25C67.2 22.05 66.8 21.85 66.3 21.65C65.7 21.45 65.3 21.25 64.9 21.25C64.6 21.15 64 21.05 63.2 20.85C62.2 20.65 61.4 20.45 60.7 20.15C60 19.85 59.3 19.55 58.6 19.05C57.9 18.55 57.4 18.05 57 17.25C56.6 16.55 56.5 15.65 56.5 14.55C56.5 12.75 57.2 11.25 58.6 10.15C60 9.05 61.9 8.45 64.1 8.45C66.3 8.45 68.1 8.85 69.4 9.65C70.7 10.45 71.4 11.25 71.4 12.15C71.4 12.55 71.3 12.85 71 13.15C70.7 13.45 70.5 13.65 70.2 13.85C69.9 13.95 69.8 14.05 69.8 14.05C69.2 13.25 68.4 12.55 67.4 11.95C66.4 11.45 65.3 11.15 64.1 11.15C62.8 11.15 61.7 11.45 60.9 12.05C60.1 12.65 59.7 13.45 59.7 14.45C59.7 14.95 59.8 15.45 60 15.75C60.2 16.15 60.5 16.45 61 16.65C61.5 16.85 62 17.05 62.4 17.15C62.8 17.25 63.5 17.45 64.3 17.65C64.5 17.65 64.6 17.75 64.7 17.75C65.7 17.95 66.6 18.25 67.4 18.55C68.1 18.85 68.9 19.25 69.6 19.65C70.3 20.15 70.9 20.75 71.3 21.45C71.7 22.15 71.9 23.05 71.9 24.05C71.9 25.95 71.2 27.55 69.8 28.65C68.4 29.75 66.4 30.35 63.9 30.35C61.5 30.35 59.6 29.85 58.2 28.95C56.9 28.25 56.1 27.35 56.1 26.35ZM78.6 21.45V10.35C78.6 9.35 79.1 8.85 80 8.85H80.5C81.5 8.85 82 9.35 82 10.35V21.45C82 25.55 83.8 27.55 87.3 27.55C90.8 27.55 92.6 25.45 92.6 21.35V10.35C92.6 9.35 93.1 8.85 94 8.85H94.5C95.4 8.85 95.9 9.35 95.9 10.35V21.45C95.9 24.35 95.2 26.65 93.7 28.25C92.2 29.85 90.1 30.55 87.2 30.55C84.4 30.55 82.2 29.75 80.8 28.25C79.3 26.65 78.6 24.45 78.6 21.45ZM103.5 28.55V10.85C103.5 10.25 103.7 9.85 104 9.45C104.3 9.05 104.8 8.95 105.3 8.95H111.3C113.9 8.95 115.9 9.45 117.2 10.55C118.5 11.65 119.2 13.15 119.2 15.25C119.2 17.05 118.7 18.55 117.6 19.65C116.5 20.75 115 21.35 112.9 21.55L119.1 28.85C119.2 28.95 119.1 29.05 119 29.25C118.9 29.45 118.6 29.65 118.3 29.85C118 30.05 117.6 30.15 117.1 30.15C116.3 30.15 115.6 29.75 114.9 28.85L109.1 21.75H106.8V28.55C106.8 29.55 106.3 30.05 105.4 30.05H104.9C103.9 30.25 103.5 29.65 103.5 28.55ZM106.7 19.15H111.2C112.7 19.15 113.9 18.85 114.6 18.15C115.4 17.45 115.7 16.55 115.7 15.35C115.7 12.85 114.1 11.55 111 11.55H106.6L106.7 19.15ZM126.1 28.45V10.85C126.1 10.25 126.3 9.85 126.6 9.45C126.9 9.05 127.4 8.95 127.9 8.95H139.4C140.4 8.95 141 9.45 141 10.35V10.55C141 11.45 140.5 11.95 139.4 11.95H129.4V18.75H136.8C137.8 18.75 138.4 19.15 138.4 20.05V20.15C138.4 21.05 137.9 21.55 136.8 21.55H129.5V28.75C129.5 29.75 129 30.25 128 30.25H127.5C126.6 30.25 126.1 29.65 126.1 28.45ZM147.2 28.25V10.85C147.2 10.25 147.4 9.85 147.7 9.45C148 9.05 148.5 8.95 149 8.95H161.3C162.3 8.95 162.9 9.45 162.9 10.35V10.55C162.9 11.45 162.4 11.95 161.3 11.95H150.5V17.95H158.8C159.8 17.95 160.4 18.35 160.4 19.25V19.35C160.4 20.25 159.9 20.75 158.8 20.75H150.5V27.15H161.5C162.5 27.15 163 27.55 163 28.55V28.75C163 29.75 162.5 30.25 161.5 30.25H149C148.5 30.25 148 30.05 147.7 29.75C147.4 29.25 147.2 28.85 147.2 28.25ZM169.8 28.55V10.85C169.8 10.25 170 9.85 170.3 9.45C170.6 9.05 171.1 8.95 171.6 8.95H177.6C180.2 8.95 182.2 9.45 183.5 10.55C184.8 11.65 185.5 13.15 185.5 15.25C185.5 17.05 185 18.55 183.9 19.65C182.8 20.75 181.3 21.35 179.2 21.55L185.4 28.85C185.5 28.95 185.4 29.05 185.3 29.25C185.2 29.45 184.9 29.65 184.6 29.85C184.3 30.05 183.9 30.15 183.4 30.15C182.6 30.15 181.9 29.75 181.2 28.85L175.4 21.75H173.1V28.55C173.1 29.55 172.6 30.05 171.7 30.05H171.2C170.3 30.25 169.8 29.65 169.8 28.55ZM173.1 19.15H177.6C179.1 19.15 180.3 18.85 181 18.15C181.8 17.45 182.1 16.55 182.1 15.35C182.1 12.85 180.5 11.55 177.4 11.55H173L173.1 19.15Z" fill="black"/>
</g>
<defs>
<linearGradient id="paint0_linear" x1="-3.6126e-07" y1="39" x2="48.7348" y2="29.7781" gradientUnits="userSpaceOnUse">
<stop stop-color="#E84D8C"/>
<stop offset="1" stop-color="#F8D98A"/>
</linearGradient>
<clipPath id="clip0">
<rect width="185.5" height="39" fill="white"/>
</clipPath>
</defs>
</svg>
