<svg xmlns="http://www.w3.org/2000/svg" viewBox="0 0 420 234.72"><defs><style>.cls-1{fill:#f1f5f9;}</style></defs><title>V7_logo_dark</title><g id="Layer_2" data-name="Layer 2"><g id="Layer_2-2" data-name="Layer 2"><path class="cls-1" d="M259.68,234.72,344.25,60.85a2.83,2.83,0,0,0-2.55-4.07H239.81a5.68,5.68,0,0,0-5.1,3.19L157.47,218.74a28.38,28.38,0,0,1-51,0L0,0H63.15L129.4,136.18a2.83,2.83,0,0,0,5.1,0L193,16A28.4,28.4,0,0,1,218.5,0H391.08a29,29,0,0,1,21.66,9.42,28.42,28.42,0,0,1,4.4,31.39L322.82,234.72Z"/></g></g></svg>