<?xml version="1.0" encoding="utf-8"?>
<!-- Generator: Adobe Illustrator 25.4.2, SVG Export Plug-In . SVG Version: 6.00 Build 0)  -->
<svg version="1.1" id="Layer_1" xmlns="http://www.w3.org/2000/svg" xmlns:xlink="http://www.w3.org/1999/xlink" x="0px" y="0px"
	 viewBox="0 0 2000 2000" style="enable-background:new 0 0 2000 2000;" xml:space="preserve">
<style type="text/css">
	.st0{fill:#EB4D8C;}
	.st1{fill:#7B34C7;}
	.st2{fill:#4126E8;}
</style>
<g>
	<g>
		<path class="st0" d="M873.32,1082.59c-35.36-26.43-56.47-69.98-56.47-116.49c0-2.27,0.09-4.62,0.26-6.98
			c1.65-22.78,12.71-63.11,56.01-125.85c27.13-39.32,56.92-72.77,69.31-84.62l5.33-5.1l6.33,7.18
			c15.21,17.22,55.63,62.96,86.23,113.11l-12.1,7.38c-27.83-45.61-64.19-87.76-81.22-107.1
			c-30.58,31.63-110.99,130.28-115.75,196.03c-0.15,2.03-0.22,4.03-0.22,5.96c0,42.06,18.98,81.37,50.78,105.14L873.32,1082.59z"/>
	</g>
	<g>
		<path class="st1" d="M1066.95,1147.2v-14.18c56.81,0,103.02-50.6,103.02-112.79c0-27.96-18.05-81.66-103.34-179.12
			c-19.46,20.29-63.15,72.36-86.93,122.55l-12.81-6.07c27.09-57.18,79.23-116.74,95.16-131.97l5.33-5.1l6.18,7
			c73.38,83.05,110.59,147.89,110.59,192.71C1184.15,1090.25,1131.57,1147.2,1066.95,1147.2z"/>
	</g>
	<g>
		<path class="st2" d="M964.05,1255.83c-60.97,0-110.58-53.72-110.58-119.76c0-1.93,0.07-3.93,0.22-5.94
			c2.03-28,17.9-63.7,47.17-106.12c22.81-33.05,47.86-61.18,58.29-71.15l5.33-5.1l6.1,6.91c69.04,78.14,104.05,139.17,104.05,181.4
			C1074.62,1202.1,1025.02,1255.83,964.05,1255.83z M963.73,968.35c-11.79,12.34-32.22,36.2-51.21,63.71
			c-27.43,39.74-42.89,74.01-44.7,99.09c-0.12,1.67-0.18,3.33-0.18,4.92c0,58.22,43.25,105.58,96.4,105.58
			c53.16,0,96.4-47.36,96.4-105.58C1060.45,1109.89,1043.55,1059.63,963.73,968.35z"/>
	</g>
</g>
</svg>
