<?xml version="1.0" encoding="utf-8"?>
<!-- Generator: Adobe Illustrator 25.4.5, SVG Export Plug-In . SVG Version: 6.00 Build 0)  -->
<svg version="1.1" id="Layer_1" xmlns="http://www.w3.org/2000/svg" xmlns:xlink="http://www.w3.org/1999/xlink" x="0px" y="0px"
	 viewBox="0 0 1500 500" style="enable-background:new 0 0 1500 500;" xml:space="preserve">
<style type="text/css">
	.st0{fill:#EA4E8D;}
	.st1{fill:url(#SVGID_1_);}
	.st2{opacity:0.5;fill:url(#SVGID_00000051373135389044087880000004175927761691453571_);}
	.st3{opacity:0.5;fill:url(#SVGID_00000004508841541620052660000010596017987976422840_);}
	.st4{opacity:0.5;fill:url(#SVGID_00000137124086646337762570000008932144445021391005_);}
	.st5{opacity:0.5;fill:url(#SVGID_00000089545789578406350750000011769684990201837467_);}
	.st6{opacity:0.5;}
	.st7{fill:url(#SVGID_00000078015827608289717970000005759343591091697821_);}
	.st8{opacity:0.4;fill:url(#SVGID_00000090267990186597398010000014381977530082675376_);}
	.st9{fill:url(#SVGID_00000175315960732018003410000017522624144264178867_);}
	.st10{fill:#FFFFFF;}
	.st11{font-family:'Montserrat-Bold';}
	.st12{font-size:212.6012px;}
	.st13{letter-spacing:-8.5;}
</style>
<g>
	<g>
		<g>
			<g>
				<path class="st0" d="M661,457.3c0.1-0.1-0.1-0.3-0.2-0.2c-2.3,1.7-10.5,7.1-19.3,7.1c-7.3,0-9.3-2.8-13.4-2.8
					c-2.8,0-4.7,1-5.4,1.4c-0.1,0.1-0.1,0.2,0.1,0.2c1.4,0.1,6,0.7,6,3.1c0,2.8-6.1,3.9-10.4,3.9c-4.2,0-11.9,1.1-16,6.7
					c-0.1,0.1,0,0.3,0.2,0.2c1.3-0.6,5.3-2.2,11-2.2c4.9,0,9.8,1.5,16.3,1.5C636.4,476.3,650.6,472.2,661,457.3z"/>
			</g>
			<g>
				<path class="st0" d="M614.9,477.9c-6.7,0-11.5,0.9-14.7,4.2c-3.5,3.6-2.8,5.3-6.5,7.3c-0.1,0.1-0.1,0.3,0.1,0.3
					c1.6,0,6.2-0.5,10.1-4.6c0,0,4.5-5.9,11.2-7.1C615.2,478,615.3,477.9,614.9,477.9z"/>
			</g>
			<g>
				<path class="st0" d="M599.9,461.3c-10.4-2.3-13.8-17.7-28.5-17.7c-6.3,0-9.3,2.2-10.1,3.1c-0.1,0.1-0.1,0.2,0.1,0.1
					c0.7-0.3,2.3-0.8,4.8-0.8c9,0,7,15.3,33.6,15.5C599.9,461.5,600,461.3,599.9,461.3z"/>
			</g>
			<g>
				<path class="st0" d="M568.9,452.2c0.2,0,0.2-0.2,0.1-0.3c-1-0.6-3.7-2.2-6.8-2.2c-9,0-9,8-16,8.4c-0.2,0-0.2,0.2-0.1,0.3
					c1,0.5,3.3,1.6,6.2,1.6C560.7,460.1,559.7,452.5,568.9,452.2z"/>
			</g>
			<g>
				<path class="st0" d="M613.7,445.1c-1.2,0.2-3.2,0.6-6.2,0.6c-7.7,0-12.1-9.2-26.4-9.2c-6.2,0-10.6,3.1-11.8,4
					c-0.1,0.1,0,0.2,0.1,0.2c1.7-0.4,3.5-0.9,8.8-0.9c8.7,0,9,7.7,26.7,7.7c4,0,7.5-1.5,8.9-2.3C613.9,445.2,613.8,445,613.7,445.1z
					"/>
			</g>
			<g>
				<path class="st0" d="M622.3,413.9c0.1-0.1,0.3,0,0.2,0.2c-2.2,3.1-11.1,14-29.5,14c-9.6,0-11-3-16.9-3c-5.5,0-9.2,4.7-9.7,8
					c0,0.1-0.2,0.1-0.2,0c0-3.9,1.7-15.3,14.4-15.3c6.9,0,10.8,3.7,19.9,3.7C612.6,421.4,620,415.8,622.3,413.9z"/>
			</g>
			<g>
				<path class="st0" d="M591.7,450.1c1.7,1.9,9.7,10.2,22.7,10.2c14.6,0,20.9-23.4,31.8-23.4c7.2,0,7.3,5.2,7.3,6.6
					c0,4.2-5.4,15.1-16.7,16.2c-0.1,0-0.2,0.2,0,0.2c1.6,0.2,4.3,0.4,6.2,0.4c2.8,0,29.5-3.6,29.5-34.6c0-28,15-26.6,17.9-26.1
					c0.1,0,0.2-0.1,0.1-0.2c-2-1.6-11.5-8.3-28.3-8.3c-32.4,0-34,39.1-64.4,39.5c-0.1,0-0.2,0.2-0.1,0.2c1.5,0.8,6.8,3.4,10.3,3.4
					c12.2,0,12.7-9.1,20.4-9.1c4.5,0,5.8,2.6,5.8,5.7c0,2.8-5.7,20.8-31.8,20.8c-6.2,0-9.5-1.3-10.6-1.7
					C591.7,449.9,591.6,450,591.7,450.1z M665.4,395.9c0-0.1,0-0.2,0.1-0.1c2.9,0.2,5.6,0.5,8,1c0.1,0,0.1,0.1,0.1,0.2
					c-0.3,0.5-1.7,2.1-4.4,2.1C666.5,399.1,665.6,396.5,665.4,395.9z"/>
			</g>
			<g>
				<path class="st0" d="M630.1,404c0.1,0,0.1,0.1,0.1,0.2c-1.3,1.5-11.8,12.7-26.1,12.7c-4.2,0-7.2-1.2-8.4-1.9
					c-0.1-0.1-0.2-0.3,0.1-0.2c0.9,0.2,2.7,0.5,4.7,0.5C610.9,415.3,611.5,403.7,630.1,404z"/>
			</g>
		</g>
		<g>
			<g>
				<path class="st0" d="M572,461.8H571v-3.5h-1.2v-0.9h3.3v0.9H572V461.8z M565.6,461.8h-0.9l0.2-4.4h1l1.1,2.8l1-2.8h1l0.1,4.4
					h-0.9l-0.1-2.5l-0.7,2h-0.9l-0.8-2L565.6,461.8z"/>
			</g>
		</g>
	</g>
	<g>
		
			<linearGradient id="SVGID_1_" gradientUnits="userSpaceOnUse" x1="71.5046" y1="6565.1538" x2="163.5068" y2="6565.1538" gradientTransform="matrix(-0.6049 -0.7963 0.7963 -0.6049 -4693.3979 4501.4082)">
			<stop  offset="0" style="stop-color:#221F1F;stop-opacity:0"/>
			<stop  offset="7.361960e-02" style="stop-color:#E5E5E4;stop-opacity:0"/>
			<stop  offset="0.3814" style="stop-color:#E8A8BC;stop-opacity:0.4068"/>
			<stop  offset="0.6893" style="stop-color:#E96D9A;stop-opacity:0.8136"/>
			<stop  offset="0.8304" style="stop-color:#EA4E8D"/>
		</linearGradient>
		<path class="st1" d="M458.2,406.8c0,0-10.7,11.7-19.5,19.6c-8.8,7.9-10.8,15.8-10.7,20.5c0.8,28.3,20.6,39.1,40.4,38.6
			c19-0.5,25.6-22.2,23-42.7c-2.6-20.5-2.4-49.8-22.1-68.4C469.3,374.3,469.9,394.6,458.2,406.8z"/>
		
			<linearGradient id="SVGID_00000055665858176212748950000009282437511471156157_" gradientUnits="userSpaceOnUse" x1="155.9993" y1="6598.5649" x2="87.4564" y2="6543.792" gradientTransform="matrix(-0.6049 -0.7963 0.7963 -0.6049 -4693.3979 4501.4082)">
			<stop  offset="0" style="stop-color:#221F1F;stop-opacity:0"/>
			<stop  offset="7.361960e-02" style="stop-color:#E5E5E4;stop-opacity:0"/>
			<stop  offset="0.3814" style="stop-color:#E8A8BC;stop-opacity:0.4068"/>
			<stop  offset="0.6893" style="stop-color:#E96D9A;stop-opacity:0.8136"/>
			<stop  offset="0.8304" style="stop-color:#EA4E8D"/>
		</linearGradient>
		<path style="opacity:0.5;fill:url(#SVGID_00000055665858176212748950000009282437511471156157_);" d="M451.3,407.4
			c-9.8,11-23.3,27.7-23.3,39.5c0,11.4,22.2,17.2,38.5,17.2c11.9,0,35.8-5.6,35.8-14.6c0-19.5-1.6-19.8-10.2-42.6
			c-2.2-5.8,7.3,43.1-25.4,41.7c-32.7-1.4-32.9-19.8-13-34.9c7.9-6,6.7-9.3,6.7-9.3"/>
		
			<linearGradient id="SVGID_00000160912999106627524690000004161373044766516392_" gradientUnits="userSpaceOnUse" x1="70.638" y1="6570.7012" x2="170.7169" y2="6570.7012" gradientTransform="matrix(-0.6049 -0.7963 0.7963 -0.6049 -4693.3979 4501.4082)">
			<stop  offset="0" style="stop-color:#221F1F;stop-opacity:0"/>
			<stop  offset="7.361960e-02" style="stop-color:#E5E5E4;stop-opacity:0"/>
			<stop  offset="0.3814" style="stop-color:#E8A8BC;stop-opacity:0.4068"/>
			<stop  offset="0.6893" style="stop-color:#E96D9A;stop-opacity:0.8136"/>
			<stop  offset="0.8304" style="stop-color:#EA4E8D"/>
		</linearGradient>
		<path style="opacity:0.5;fill:url(#SVGID_00000160912999106627524690000004161373044766516392_);" d="M448.9,410
			c0,0,1.4,10.6-1.4,24.8c-2.8,14.2-7.6,45.8,23.7,51.1c14.7-0.3,19-20.4,19-20.4s9.2-79.7-27.7-95c-0.5,5.8-1,17.5-5.4,27.6
			C457.1,398.1,454.9,403.5,448.9,410z"/>
		
			<linearGradient id="SVGID_00000000209167061594197090000000668657278343216530_" gradientUnits="userSpaceOnUse" x1="157.7147" y1="6558.3926" x2="74.8815" y2="6589.8354" gradientTransform="matrix(-0.6049 -0.7963 0.7963 -0.6049 -4693.3979 4501.4082)">
			<stop  offset="0" style="stop-color:#221F1F;stop-opacity:0"/>
			<stop  offset="7.361960e-02" style="stop-color:#E5E5E4;stop-opacity:0"/>
			<stop  offset="0.3814" style="stop-color:#E8A8BC;stop-opacity:0.4068"/>
			<stop  offset="0.6893" style="stop-color:#E96D9A;stop-opacity:0.8136"/>
			<stop  offset="0.8304" style="stop-color:#EA4E8D"/>
		</linearGradient>
		<path style="opacity:0.5;fill:url(#SVGID_00000000209167061594197090000000668657278343216530_);" d="M458.2,394.4
			c0,0,3.2-6.9,4.2-23.9c0,0,8.8,1.4,18,15.6c6.6,10.2,15.6,27.2,19.8,42.1c5.6,19.9,0.3,38.3-10,47.3
			c-12.4,10.7-24.9,11.3-32.1,5.7c-6.5-5.1-10.7-10.3-12-19.7l2.4,0.6c0,0,1.4,6.5,6.2,12.4c3.6,4.5,13.2,10.8,19.3,8
			c9-4,8.8-12.8,5.8-19.9c-3.3-7.8-13.4-14.3-15.4-25.9c-2.2-12.6,1.8-15.9,0.8-27.3C464.3,399.8,458.2,394.4,458.2,394.4z"/>
		
			<linearGradient id="SVGID_00000111907272119190090040000001819870819574485127_" gradientUnits="userSpaceOnUse" x1="126.8215" y1="6613.0977" x2="135.7414" y2="6581.0806" gradientTransform="matrix(-0.6049 -0.7963 0.7963 -0.6049 -4693.3979 4501.4082)">
			<stop  offset="0" style="stop-color:#221F1F;stop-opacity:0"/>
			<stop  offset="7.361960e-02" style="stop-color:#E5E5E4;stop-opacity:0"/>
			<stop  offset="0.3814" style="stop-color:#E8A8BC;stop-opacity:0.4068"/>
			<stop  offset="0.6893" style="stop-color:#E96D9A;stop-opacity:0.8136"/>
			<stop  offset="0.8304" style="stop-color:#EA4E8D"/>
		</linearGradient>
		<path style="opacity:0.5;fill:url(#SVGID_00000111907272119190090040000001819870819574485127_);" d="M475.9,442.8
			c0,0,0.3-11.5,1.8-20c1.4-8.1,4.7-19.3-0.9-28.8c-5.5-9.5-15-15-15-15s-1.1,6.5-2.7,13.8c0,0,9,8.9,9.9,22
			C469.5,421.1,475.9,442.8,475.9,442.8z"/>
		<g class="st6">
			
				<linearGradient id="SVGID_00000133511681251923871570000017265906115190236048_" gradientUnits="userSpaceOnUse" x1="105.9662" y1="6580.2832" x2="154.8941" y2="6580.2832" gradientTransform="matrix(-0.6049 -0.7963 0.7963 -0.6049 -4693.3979 4501.4082)">
				<stop  offset="0" style="stop-color:#221F1F;stop-opacity:0"/>
				<stop  offset="7.361960e-02" style="stop-color:#E5E5E4;stop-opacity:0"/>
				<stop  offset="0.3814" style="stop-color:#E8A8BC;stop-opacity:0.4068"/>
				<stop  offset="0.6893" style="stop-color:#E96D9A;stop-opacity:0.8136"/>
				<stop  offset="0.8304" style="stop-color:#EA4E8D"/>
			</linearGradient>
			<path style="fill:url(#SVGID_00000133511681251923871570000017265906115190236048_);" d="M475.1,442.2c0,0-1.6-15.9-3.6-24.6
				c-2.5-10.8-4.9-20.3-12.4-24.7"/>
		</g>
		
			<linearGradient id="SVGID_00000034774347839603781350000001185068111033238702_" gradientUnits="userSpaceOnUse" x1="106.896" y1="6537.4712" x2="67.4649" y2="6552.439" gradientTransform="matrix(-0.6049 -0.7963 0.7963 -0.6049 -4693.3979 4501.4082)">
			<stop  offset="0" style="stop-color:#221F1F;stop-opacity:0"/>
			<stop  offset="7.361960e-02" style="stop-color:#E5E5E4;stop-opacity:0"/>
			<stop  offset="0.3814" style="stop-color:#E8A8BC;stop-opacity:0.4068"/>
			<stop  offset="0.6893" style="stop-color:#E96D9A;stop-opacity:0.8136"/>
			<stop  offset="0.8304" style="stop-color:#EA4E8D"/>
		</linearGradient>
		<path style="opacity:0.4;fill:url(#SVGID_00000034774347839603781350000001185068111033238702_);" d="M469.4,489.7
			c0,0-5.4-2,3-3.4c8.3-1.4,5.5-1,5.5-1l2.7-0.3c0,0,6.1-5.8,0.9-18.2c-9.3,2-20.5,2.7-34.3-0.5c0.1,4.1,3,9.5,4.8,11.8
			c3,4,4.9,5.8,8.3,7.9C463.8,488.1,466.5,489.1,469.4,489.7z"/>
		
			<linearGradient id="SVGID_00000135669640958399689680000013662944400727035831_" gradientUnits="userSpaceOnUse" x1="-3570.9043" y1="505.8172" x2="-3671.1807" y2="425.6862" gradientTransform="matrix(-0.9625 0.2714 0.2714 0.9625 -3147.0081 982.8135)">
			<stop  offset="0" style="stop-color:#221F1F;stop-opacity:0"/>
			<stop  offset="0.3431" style="stop-color:#E5E5E4;stop-opacity:0"/>
			<stop  offset="0.3509" style="stop-color:#E5E2E2;stop-opacity:1.201278e-02"/>
			<stop  offset="0.4403" style="stop-color:#E7BECA;stop-opacity:0.1501"/>
			<stop  offset="0.5315" style="stop-color:#E89EB6;stop-opacity:0.2908"/>
			<stop  offset="0.6226" style="stop-color:#E985A6;stop-opacity:0.4316"/>
			<stop  offset="0.714" style="stop-color:#E9709B;stop-opacity:0.5726"/>
			<stop  offset="0.8056" style="stop-color:#EA5E93;stop-opacity:0.714"/>
			<stop  offset="0.8976" style="stop-color:#EA538E;stop-opacity:0.8561"/>
			<stop  offset="0.9908" style="stop-color:#EA4E8D"/>
		</linearGradient>
		<path style="fill:url(#SVGID_00000135669640958399689680000013662944400727035831_);" d="M433.5,468.1c0,0,14.2,5,35.8-24.4
			c21.6-29.5,16-41.3,15.6-42.8c0,0,5.8,20.3,5.8,28.9c0,6.7-32.3,61.3-51.7,45.3C437.5,473.6,434.6,469.8,433.5,468.1z"/>
	</g>
	<g>
		<path class="st0" d="M769.8,397.5h-18.6c-2.6,0-4.6,2.1-4.6,4.6v69.4c0,2.6,2.1,4.6,4.6,4.6h15.5c2.6,0,4.6-2.1,4.6-4.6v-2.8
			c0-2.6-2.1-4.6-4.6-4.6h-3.4c-2.6,0-4.6-2.1-4.6-4.6v-45.3c0-2.6,2.1-4.6,4.6-4.6h3.3c1,0,1.9,0.3,2.7,0.9l42.9,31
			c3.1,2.2,7.3,0,7.3-3.7v-2c0-1.5-0.7-2.8-1.9-3.7l-45-33.6C771.7,397.8,770.7,397.5,769.8,397.5z"/>
		<path class="st0" d="M820.3,476.2h18.6c2.6,0,4.6-2.1,4.6-4.6v-69.4c0-2.6-2.1-4.6-4.6-4.6h-15.5c-2.6,0-4.6,2.1-4.6,4.6v2.8
			c0,2.6,2.1,4.6,4.6,4.6h3.4c2.6,0,4.6,2.1,4.6,4.6v45.3c0,2.6-2.1,4.6-4.6,4.6h-3.3c-1,0-1.9-0.3-2.7-0.9l-42.9-31
			c-3.1-2.2-7.3,0-7.3,3.7v2c0,1.5,0.7,2.8,1.9,3.7l45,33.6C818.4,475.9,819.3,476.2,820.3,476.2z"/>
	</g>
	<g>
		<path class="st0" d="M1037,410.3c-0.1-0.3-0.4-0.4-0.6-0.2c-2.2,1.5-3.5,2.2-5.4,3.3l0,0.3l0-0.3c0,0-8.5,4.5-18.7,8.1
			c-2.6,1-5.1,1.8-7.3,2.6c1.6-2.3,2.7-4.8,3.3-7.6c1.2-5.6,0.3-11.2-2.6-15.7c-2.9-4.7-7.8-7.9-13.5-9.2c-2.4-0.5-4.8-0.6-7.2-0.3
			c-8.8,1.2-15.9,7.8-17.8,16.4c-1.3,5.9,0.1,11.7,3.3,16.3c-10.8,3.1-17.9,10.4-18.5,14.7h0c-1,0.7-2,1.3-3,2
			c-4.8,3-9.6,6-11.6,7.2c-0.1,0-0.2,0.1-0.3,0.1c-3.3-4-4.9-9.4-4-15c1.7-10.2,11.5-17.1,21.7-15.4c1.6,0.3,3.1,0.7,4.5,1.4
			c0.4-0.6,7.9-11,0.2-20.3c-2.7-3.3-6.6-5.6-10.8-6.3c-0.1,0-0.1,0-0.2,0c-17.6-2.9-34.2,8.9-37.1,26.5c-2.4,14.2,4.9,27.8,17.1,34
			c-6.3,3.4-12,6.3-18.7,10.1c0,0,0,0-0.1,0.1c-2.9,1.7-5,4.1-6.5,6.2c-2.2,3-1.6,7.2,1.5,9.3l0.1,0.1c0.9,0.6,2,0.3,2.5-0.7
			c0.4-0.8,3.1-7.3,4.4-10.2c0.4,0.8,0.8,1.5,1,2c0.2,0.5,0.8,0.7,1.3,0.5c10.2-3.3,17.7-3.9,23-4c0,0,0,0-0.1,0.1
			c-0.6,0.7-1.4,2.5-2.1,5c-0.4,1.4-0.5,2.4-0.5,3.2c0,0,0,0,0,0c0,0,0,0.1,0,0.1c0.1,1.6,0.8,2.3,1.9,2.2c0.1,0,0.1,0,0.1,0
			c0,0,0,0,0,0c0,0,0,0,0,0c0.7-0.1,1.5-2.7,2-4.5c0.2-0.6,0.3-1.1,0.4-1.7c0-0.1,0-0.2,0-0.2c1.4,3.1,3.9,7,8.1,8.3
			c8.1,2.5,25-19.4,25-19.4c20.1-7.2,26.7-12.3,32.4-20.6l0.5-0.8c0.2-0.1,2.2-0.9,2.3-1c10.9-5,22.5-13.6,24.3-14.9l0,0
			c0,0,3.3-2.4,5.5-5.6C1038.3,414.1,1037.4,411.4,1037,410.3z M977.5,447.6L977,441c-4.1,1.2-9.2,0.9-12.3-3.4
			c-0.3-0.4-0.1-1,0.4-1.1l0,0c2.8,4.5,8,4.3,12.2,3.2l0,0c2.9-0.8,4.9-2,6.6-3.1c0.1-0.1,0.3-0.1,0.4,0
			C986,439.7,985.2,445.6,977.5,447.6z M998.5,428.6c-1.8,1.2-3.8,2-5.8,2.6c-6.7,2.1-11.1-1.5-11.9-2.6c-0.1-0.1,0-0.2,0.1-0.2
			c1.2,0.5,5.9,2.2,9.8,0.9c-1.2-4,0.8-11.6,11.2-14c0,0,1-0.2,1.5-0.3c0,0,0,0,0,0c0,0,0.9,0,1.4-0.6c0.2-0.1,0.3-0.3,0.4-0.5
			c0.2-0.1,0.2-0.8,0.2-1c0-0.1,0-0.1,0-0.1c0,0,0,0,0,0c0-0.3,0-0.7-0.5-1.2c-0.6-0.5-2.4-1-2.6-1c-13.3-4.7-20-3.7-20.4-3.8
			c0,0,0,0,0,0c0,0,0,0,0,0c0,0,0,0,0,0c-0.1-0.3-0.5-1-0.5-1.1c-1.2-3.1-0.7-5.4-0.8-5.6c-0.5-0.6-1.6-1-2.4-0.3
			c-1.8,1.6-2.7,5.9-2.7,5.8c-0.2-1.2-0.3-3.1,0.4-6.1c0.2-1-0.2-2.1-1.1-2.3c2.9-2.5,6.4-4.2,10.4-4.7c2.2-0.3,4.5-0.2,6.7,0.3
			c5.4,1.2,10,4.2,12.7,8.6c2.7,4.3,3.6,9.6,2.5,14.8C1005.9,421.3,1002.9,425.7,998.5,428.6z"/>
	</g>
</g>
<text transform="matrix(0.9362 0 0 1 13.1768 298.2021)" class="st10 st11 st12 st13">ElixirConf EU</text>
<path class="st10" d="M975.1,132.7c2.1,1.2,3.9,3,5.1,5.1c1.2,2.2,1.9,4.7,1.8,7.2c0,2.5-0.6,5-1.9,7.2c-1.2,2.1-3,3.9-5.1,5.2
	c-4.4,2.5-9.9,2.5-14.3,0c-2.1-1.2-3.9-3-5.1-5.1c-2.5-4.4-2.5-9.8,0-14.3c1.2-2.1,3-3.9,5.1-5.1
	C965.2,130.3,970.6,130.3,975.1,132.7L975.1,132.7z M974.3,156c3.9-2.3,6.3-6.5,6.3-11.1c0-2.2-0.5-4.4-1.6-6.4
	c-1.1-1.9-2.6-3.5-4.5-4.5c-4-2.2-8.9-2.2-12.9,0c-1.9,1.1-3.5,2.7-4.6,4.6c-2.2,4-2.2,8.8,0,12.8c1.1,1.9,2.7,3.5,4.6,4.6
	C965.4,158.3,970.3,158.3,974.3,156L974.3,156z M974.1,145.5c-0.7,0.9-1.6,1.6-2.7,1.9l3.8,5.8H973l-3.5-5.4c-0.3,0-0.6,0-0.9,0
	h-4.2v5.4h-2.1V137h6.3c1.7-0.1,3.4,0.4,4.7,1.4c1.2,1,1.8,2.4,1.7,3.9C975.1,143.5,974.7,144.6,974.1,145.5L974.1,145.5z
	 M971.8,145.1c0.8-0.7,1.2-1.7,1.2-2.7c0.1-1-0.4-2-1.2-2.7c-1-0.7-2.1-1-3.3-0.9h-4.1v7.3h4.1C969.7,146.1,970.8,145.8,971.8,145.1
	L971.8,145.1z"/>
</svg>
