<?xml version="1.0" encoding="utf-8"?>
<!-- Generator: Adobe Illustrator 27.7.0, SVG Export Plug-In . SVG Version: 6.00 Build 0)  -->
<svg version="1.1" id="Layer_1" xmlns="http://www.w3.org/2000/svg" xmlns:xlink="http://www.w3.org/1999/xlink" x="0px" y="0px"
	 viewBox="0 0 1500 500" style="enable-background:new 0 0 1500 500;" xml:space="preserve">
<style type="text/css">
	.st0{fill:#FFFFFF;}
	.st1{fill:#AD3A8A;}
	.st2{fill:#F9D75A;}
	.st3{fill:#9AD7D8;}
	.st4{fill:url(#SVGID_1_);}
	.st5{opacity:0.5;fill:url(#SVGID_00000020381918606786525030000014387666949656890798_);}
	.st6{opacity:0.5;fill:url(#SVGID_00000083089977058788544670000002361227801297939079_);}
	.st7{opacity:0.5;fill:url(#SVGID_00000096048823767201316180000001691493990021574036_);}
	.st8{opacity:0.5;fill:url(#SVGID_00000041292610236253653740000015421793044958865046_);}
	.st9{opacity:0.5;}
	.st10{fill:url(#SVGID_00000177450145736793121640000015153100979281528250_);}
	.st11{opacity:0.4;fill:url(#SVGID_00000069363746925504835750000010093328950361515953_);}
	.st12{fill:url(#SVGID_00000110463425138609340710000012678734315733299889_);}
</style>
<g>
	<g>
		<g>
			<path class="st0" d="M1276.1,122.9c2.5,1.4,4.5,3.4,6,6c1.4,2.5,2.2,5.3,2.2,8.4c0,3.1-0.7,5.9-2.2,8.4c-1.5,2.6-3.5,4.6-6,6
				c-2.5,1.5-5.3,2.2-8.4,2.2c-3.1,0-5.9-0.7-8.4-2.2c-2.5-1.5-4.5-3.5-6-6c-1.5-2.5-2.2-5.3-2.2-8.4c0-3,0.7-5.8,2.2-8.4
				c1.5-2.5,3.5-4.5,6-6c2.5-1.5,5.4-2.2,8.5-2.2C1270.7,120.7,1273.5,121.4,1276.1,122.9z M1275.1,150.2c2.3-1.3,4-3.1,5.4-5.4
				c1.3-2.3,2-4.8,2-7.6c0-2.8-0.6-5.3-1.9-7.5c-1.3-2.2-3.1-4-5.3-5.3c-2.2-1.3-4.8-2-7.5-2c-2.8,0-5.3,0.7-7.6,2
				c-2.3,1.3-4.1,3.1-5.4,5.4c-1.3,2.3-2,4.8-2,7.5c0,2.7,0.7,5.2,2,7.5c1.3,2.3,3.1,4.1,5.3,5.4c2.3,1.3,4.8,2,7.5,2
				C1270.3,152.2,1272.8,151.5,1275.1,150.2z M1274.8,137.8c-0.7,1-1.8,1.8-3.1,2.2l4.4,6.8h-2.5l-4.1-6.4c-0.3,0-0.6,0-1.1,0h-4.9
				v6.3h-2.4v-19h7.3c2.3,0,4.2,0.6,5.5,1.7c1.3,1.1,2,2.7,2,4.6C1275.9,135.6,1275.6,136.8,1274.8,137.8z M1272.2,137.3
				c0.9-0.8,1.4-1.8,1.4-3.2c0-1.3-0.5-2.4-1.4-3.1c-0.9-0.7-2.2-1.1-3.9-1.1h-4.8v8.6h4.8C1269.9,138.4,1271.2,138.1,1272.2,137.3z
				"/>
		</g>
		<g>
			<path class="st0" d="M225,284.4v32.7H88.8v-176h133v32.7h-92.5V212h81.7v31.7h-81.7v40.7H225z"/>
			<path class="st0" d="M244.1,130.5h39.2v186.5h-39.2V130.5z"/>
			<path class="st0" d="M311.3,156.7c-4.5-4.2-6.8-9.4-6.8-15.6c0-6.2,2.3-11.4,6.8-15.6c4.5-4.2,10.4-6.3,17.6-6.3
				c7.2,0,13.1,2,17.6,6c4.5,4,6.8,9.1,6.8,15.1c0,6.5-2.3,11.9-6.8,16.2c-4.5,4.3-10.4,6.4-17.6,6.4
				C321.6,163,315.8,160.9,311.3,156.7z M309.2,181.8h39.2v135.3h-39.2V181.8z"/>
			<path class="st0" d="M460.3,317.1l-29.7-41.5L400,317.1h-42.7l52-68.1L359,181.8h44l28.7,39.5l29.4-39.5h41.7l-50.3,66.1
				l52.3,69.1H460.3z"/>
			<path class="st0" d="M515.4,156.7c-4.5-4.2-6.8-9.4-6.8-15.6c0-6.2,2.3-11.4,6.8-15.6c4.5-4.2,10.4-6.3,17.6-6.3
				c7.2,0,13.1,2,17.6,6c4.5,4,6.8,9.1,6.8,15.1c0,6.5-2.3,11.9-6.8,16.2c-4.5,4.3-10.4,6.4-17.6,6.4
				C525.8,163,519.9,160.9,515.4,156.7z M513.4,181.8h39.2v135.3h-39.2V181.8z"/>
			<path class="st0" d="M634.9,184.8c8-3.4,17.1-5,27.5-5V216c-4.4-0.3-7.3-0.5-8.8-0.5c-11.2,0-20,3.1-26.4,9.4
				c-6.4,6.3-9.6,15.7-9.6,28.3v63.9h-39.2V181.8H616v17.9C620.7,193.1,627,188.2,634.9,184.8z"/>
			<path class="st0" d="M709.6,308.4c-14.5-7.8-25.9-18.6-34.2-32.4c-8.3-13.8-12.4-29.5-12.4-46.9c0-17.4,4.1-33.1,12.4-46.9
				c8.3-13.8,19.7-24.6,34.2-32.4c14.5-7.8,30.8-11.7,48.9-11.7c15.2,0,29,2.7,41.4,8c12.3,5.4,22.7,13.1,31,23.1l-26.1,24.1
				c-11.9-13.7-26.6-20.6-44.2-20.6c-10.9,0-20.6,2.4-29.2,7.2s-15.2,11.4-20,20c-4.8,8.5-7.2,18.3-7.2,29.2
				c0,10.9,2.4,20.6,7.2,29.2c4.8,8.5,11.4,15.2,20,20c8.5,4.8,18.3,7.2,29.2,7.2c17.6,0,32.3-7,44.2-20.9l26.1,24.1
				c-8.4,10.2-18.8,18-31.2,23.4c-12.4,5.4-26.2,8-41.5,8C740.3,320.1,724.1,316.2,709.6,308.4z"/>
			<path class="st0" d="M866.2,310.2c-11.3-5.9-20.2-14.2-26.5-24.8c-6.4-10.6-9.6-22.5-9.6-36c0-13.4,3.2-25.4,9.6-36
				c6.4-10.6,15.2-18.8,26.5-24.8c11.3-5.9,24.1-8.9,38.3-8.9c14.2,0,27,3,38.2,8.9c11.2,6,20,14.2,26.4,24.8
				c6.4,10.6,9.6,22.5,9.6,36c0,13.4-3.2,25.4-9.6,36c-6.4,10.6-15.2,18.8-26.4,24.8c-11.2,6-24,8.9-38.2,8.9
				C890.3,319.1,877.6,316.1,866.2,310.2z M929.3,276.7c6.5-6.8,9.7-15.9,9.7-27.3c0-11.4-3.2-20.5-9.7-27.3
				c-6.5-6.8-14.7-10.2-24.8-10.2c-10.1,0-18.4,3.4-24.9,10.2c-6.5,6.8-9.8,15.9-9.8,27.3c0,11.4,3.3,20.5,9.8,27.3
				c6.5,6.8,14.8,10.2,24.9,10.2C914.6,286.9,922.9,283.5,929.3,276.7z"/>
			<path class="st0" d="M1117.2,194.9c10.3,10.1,15.5,25,15.5,44.8v77.4h-39.2v-71.4c0-10.7-2.3-18.7-7-24
				c-4.7-5.3-11.5-7.9-20.4-7.9c-9.9,0-17.8,3.1-23.6,9.2c-5.9,6.1-8.8,15.2-8.8,27.3v66.9h-39.2V181.8h37.5v15.8
				c5.2-5.7,11.6-10.1,19.4-13.2c7.7-3.1,16.2-4.7,25.4-4.7C1093.3,179.8,1106.8,184.8,1117.2,194.9z"/>
			<path class="st0" d="M1200.5,184.8h34.7V215h-33.7v102.1h-39.2V215h-20.9v-30.2h20.9v-6c0-15.4,4.6-27.7,13.7-36.7
				c9.1-9.1,22-13.6,38.6-13.6c5.9,0,11.4,0.6,16.7,1.9c5.3,1.3,9.7,3.1,13.2,5.4l-10.3,28.4c-4.5-3.2-9.8-4.8-15.8-4.8
				c-11.9,0-17.9,6.5-17.9,19.6V184.8z"/>
		</g>
	</g>
	<g>
		<g>
			<path class="st1" d="M1297.3,282.3c-17.7-13.2-28.2-35-28.2-58.2c0-1.1,0-2.3,0.1-3.5c0.8-11.4,6.3-31.5,28-62.9
				c13.6-19.6,28.4-36.4,34.6-42.3l2.7-2.5l3.2,3.6c7.6,8.6,27.8,31.5,43.1,56.5l-6,3.7c-13.9-22.8-32.1-43.8-40.6-53.5
				c-15.3,15.8-55.4,65.1-57.8,97.9c-0.1,1-0.1,2-0.1,3c0,21,9.5,40.7,25.4,52.5L1297.3,282.3z"/>
		</g>
		<g>
			<path class="st2" d="M1394,314.6v-7.1c28.4,0,51.5-25.3,51.5-56.3c0-14-9-40.8-51.6-89.5c-9.7,10.1-31.6,36.2-43.4,61.2l-6.4-3
				c13.5-28.6,39.6-58.3,47.5-65.9l2.7-2.5l3.1,3.5c36.7,41.5,55.2,73.9,55.2,96.3C1452.6,286.2,1426.3,314.6,1394,314.6z"/>
		</g>
		<g>
			<path class="st3" d="M1342.6,368.9c-30.5,0-55.2-26.8-55.2-59.8c0-1,0-2,0.1-3c1-14,8.9-31.8,23.6-53
				c11.4-16.5,23.9-30.6,29.1-35.5l2.7-2.5l3,3.5c34.5,39,52,69.5,52,90.6C1397.8,342,1373.1,368.9,1342.6,368.9z M1342.4,225.3
				c-5.9,6.2-16.1,18.1-25.6,31.8c-13.7,19.9-21.4,37-22.3,49.5c-0.1,0.8-0.1,1.7-0.1,2.5c0,29.1,21.6,52.7,48.2,52.7
				c26.6,0,48.2-23.7,48.2-52.7C1390.8,296,1382.3,270.9,1342.4,225.3z"/>
		</g>
	</g>
</g>
<g>
	<g>
		<g>
			<g>
				<path class="st1" d="M661,457.3c0.1-0.1-0.1-0.3-0.2-0.2c-2.3,1.7-10.5,7.1-19.3,7.1c-7.3,0-9.3-2.8-13.4-2.8
					c-2.8,0-4.7,1-5.4,1.4c-0.1,0.1-0.1,0.2,0.1,0.2c1.4,0.1,6,0.7,6,3.1c0,2.8-6.1,3.9-10.4,3.9c-4.2,0-11.9,1.1-16,6.7
					c-0.1,0.1,0,0.3,0.2,0.2c1.3-0.6,5.3-2.2,11-2.2c4.9,0,9.8,1.5,16.3,1.5C636.4,476.3,650.6,472.2,661,457.3z"/>
			</g>
			<g>
				<path class="st1" d="M614.9,477.9c-6.7,0-11.5,0.9-14.7,4.2c-3.5,3.6-2.8,5.3-6.5,7.3c-0.1,0.1-0.1,0.3,0.1,0.3
					c1.6,0,6.2-0.5,10.1-4.6c0,0,4.5-5.9,11.2-7.1C615.2,478,615.3,477.9,614.9,477.9z"/>
			</g>
			<g>
				<path class="st1" d="M599.9,461.3c-10.4-2.3-13.8-17.7-28.5-17.7c-6.3,0-9.3,2.2-10.1,3.1c-0.1,0.1-0.1,0.2,0.1,0.1
					c0.7-0.3,2.3-0.8,4.8-0.8c9,0,7,15.3,33.6,15.5C599.9,461.5,600,461.3,599.9,461.3z"/>
			</g>
			<g>
				<path class="st1" d="M568.9,452.2c0.2,0,0.2-0.2,0.1-0.3c-1-0.6-3.7-2.2-6.8-2.2c-9,0-9,8-16,8.4c-0.2,0-0.2,0.2-0.1,0.3
					c1,0.5,3.3,1.6,6.2,1.6C560.7,460.1,559.7,452.5,568.9,452.2z"/>
			</g>
			<g>
				<path class="st1" d="M613.7,445.1c-1.2,0.2-3.2,0.6-6.2,0.6c-7.7,0-12.1-9.2-26.4-9.2c-6.2,0-10.6,3.1-11.8,4
					c-0.1,0.1,0,0.2,0.1,0.2c1.7-0.4,3.5-0.9,8.8-0.9c8.7,0,9,7.7,26.7,7.7c4,0,7.5-1.5,8.9-2.3C613.9,445.2,613.8,445,613.7,445.1z
					"/>
			</g>
			<g>
				<path class="st1" d="M622.3,413.9c0.1-0.1,0.3,0,0.2,0.2c-2.2,3.1-11.1,14-29.5,14c-9.6,0-11-3-16.9-3c-5.5,0-9.2,4.7-9.7,8
					c0,0.1-0.2,0.1-0.2,0c0-3.9,1.7-15.3,14.4-15.3c6.9,0,10.8,3.7,19.9,3.7C612.6,421.4,620,415.8,622.3,413.9z"/>
			</g>
			<g>
				<path class="st1" d="M591.7,450.1c1.7,1.9,9.7,10.2,22.7,10.2c14.6,0,20.9-23.4,31.8-23.4c7.2,0,7.3,5.2,7.3,6.6
					c0,4.2-5.4,15.1-16.7,16.2c-0.1,0-0.2,0.2,0,0.2c1.6,0.2,4.3,0.4,6.2,0.4c2.8,0,29.5-3.6,29.5-34.6c0-28,15-26.6,17.9-26.1
					c0.1,0,0.2-0.1,0.1-0.2c-2-1.6-11.5-8.3-28.3-8.3c-32.4,0-34,39.1-64.4,39.5c-0.1,0-0.2,0.2-0.1,0.2c1.5,0.8,6.8,3.4,10.3,3.4
					c12.2,0,12.7-9.1,20.4-9.1c4.5,0,5.8,2.6,5.8,5.7c0,2.8-5.7,20.8-31.8,20.8c-6.2,0-9.5-1.3-10.6-1.7
					C591.7,449.9,591.6,450,591.7,450.1z M665.4,395.9c0-0.1,0-0.2,0.1-0.1c2.9,0.2,5.6,0.5,8,1c0.1,0,0.1,0.1,0.1,0.2
					c-0.3,0.5-1.7,2.1-4.4,2.1C666.5,399.1,665.6,396.5,665.4,395.9z"/>
			</g>
			<g>
				<path class="st1" d="M630.1,404c0.1,0,0.1,0.1,0.1,0.2c-1.3,1.5-11.8,12.7-26.1,12.7c-4.2,0-7.2-1.2-8.4-1.9
					c-0.1-0.1-0.2-0.3,0.1-0.2c0.9,0.2,2.7,0.5,4.7,0.5C610.9,415.3,611.5,403.7,630.1,404z"/>
			</g>
		</g>
		<g>
			<g>
				<path class="st1" d="M572,461.8H571v-3.5h-1.2v-0.9h3.3v0.9H572V461.8z M565.6,461.8h-0.9l0.2-4.4h1l1.1,2.8l1-2.8h1l0.1,4.4
					h-0.9l-0.1-2.5l-0.7,2h-0.9l-0.8-2L565.6,461.8z"/>
			</g>
		</g>
	</g>
	<g>
		
			<linearGradient id="SVGID_1_" gradientUnits="userSpaceOnUse" x1="71.5046" y1="6565.1538" x2="163.5068" y2="6565.1538" gradientTransform="matrix(-0.6049 -0.7963 0.7963 -0.6049 -4693.3979 4501.4082)">
			<stop  offset="0" style="stop-color:#221F1F;stop-opacity:0"/>
			<stop  offset="7.361960e-02" style="stop-color:#E5E5E4;stop-opacity:0"/>
			<stop  offset="0.4153" style="stop-color:#C692B5;stop-opacity:0.4515"/>
			<stop  offset="0.7007" style="stop-color:#B45695;stop-opacity:0.8287"/>
			<stop  offset="0.8304" style="stop-color:#AD3A8A"/>
		</linearGradient>
		<path class="st4" d="M458.2,406.8c0,0-10.7,11.7-19.5,19.6c-8.8,7.9-10.8,15.8-10.7,20.5c0.8,28.3,20.6,39.1,40.4,38.6
			c19-0.5,25.6-22.2,23-42.7c-2.6-20.5-2.4-49.8-22.1-68.4C469.3,374.3,469.9,394.6,458.2,406.8z"/>
		
			<linearGradient id="SVGID_00000080929644290524116740000014291625687980150166_" gradientUnits="userSpaceOnUse" x1="155.9993" y1="6598.5649" x2="87.4564" y2="6543.792" gradientTransform="matrix(-0.6049 -0.7963 0.7963 -0.6049 -4693.3979 4501.4082)">
			<stop  offset="0" style="stop-color:#221F1F;stop-opacity:0"/>
			<stop  offset="7.361960e-02" style="stop-color:#E5E5E4;stop-opacity:0"/>
			<stop  offset="0.4153" style="stop-color:#C692B5;stop-opacity:0.4515"/>
			<stop  offset="0.7007" style="stop-color:#B45695;stop-opacity:0.8287"/>
			<stop  offset="0.8304" style="stop-color:#AD3A8A"/>
		</linearGradient>
		<path style="opacity:0.5;fill:url(#SVGID_00000080929644290524116740000014291625687980150166_);" d="M451.3,407.4
			c-9.8,11-23.3,27.7-23.3,39.5c0,11.4,22.2,17.2,38.5,17.2c11.9,0,35.8-5.6,35.8-14.6c0-19.5-1.6-19.8-10.2-42.6
			c-2.2-5.8,7.3,43.1-25.4,41.7c-32.7-1.4-32.9-19.8-13-34.9c7.9-6,6.7-9.3,6.7-9.3"/>
		
			<linearGradient id="SVGID_00000109748885291716122270000018274440383640167059_" gradientUnits="userSpaceOnUse" x1="70.638" y1="6570.7012" x2="170.7169" y2="6570.7012" gradientTransform="matrix(-0.6049 -0.7963 0.7963 -0.6049 -4693.3979 4501.4082)">
			<stop  offset="0" style="stop-color:#221F1F;stop-opacity:0"/>
			<stop  offset="7.361960e-02" style="stop-color:#E5E5E4;stop-opacity:0"/>
			<stop  offset="0.4165" style="stop-color:#C692B5;stop-opacity:0.4515"/>
			<stop  offset="0.7029" style="stop-color:#B45695;stop-opacity:0.8287"/>
			<stop  offset="0.833" style="stop-color:#AD3A8A"/>
		</linearGradient>
		<path style="opacity:0.5;fill:url(#SVGID_00000109748885291716122270000018274440383640167059_);" d="M448.9,410
			c0,0,1.4,10.6-1.4,24.8c-2.8,14.2-7.6,45.8,23.7,51.1c14.7-0.3,19-20.4,19-20.4s9.2-79.7-27.7-95c-0.5,5.8-1,17.5-5.4,27.6
			C457.1,398.1,454.9,403.5,448.9,410z"/>
		
			<linearGradient id="SVGID_00000121281370044262451850000005525479747728074381_" gradientUnits="userSpaceOnUse" x1="157.7147" y1="6558.3926" x2="74.8815" y2="6589.8354" gradientTransform="matrix(-0.6049 -0.7963 0.7963 -0.6049 -4693.3979 4501.4082)">
			<stop  offset="0" style="stop-color:#221F1F;stop-opacity:0"/>
			<stop  offset="7.361960e-02" style="stop-color:#E5E5E4;stop-opacity:0"/>
			<stop  offset="0.4147" style="stop-color:#C692B5;stop-opacity:0.4515"/>
			<stop  offset="0.6996" style="stop-color:#B45695;stop-opacity:0.8287"/>
			<stop  offset="0.829" style="stop-color:#AD3A8A"/>
		</linearGradient>
		<path style="opacity:0.5;fill:url(#SVGID_00000121281370044262451850000005525479747728074381_);" d="M458.2,394.4
			c0,0,3.2-6.9,4.2-23.9c0,0,8.8,1.4,18,15.6c6.6,10.2,15.6,27.2,19.8,42.1c5.6,19.9,0.3,38.3-10,47.3
			c-12.4,10.7-24.9,11.3-32.1,5.7c-6.5-5.1-10.7-10.3-12-19.7l2.4,0.6c0,0,1.4,6.5,6.2,12.4c3.6,4.5,13.2,10.8,19.3,8
			c9-4,8.8-12.8,5.8-19.9c-3.3-7.8-13.4-14.3-15.4-25.9c-2.2-12.6,1.8-15.9,0.8-27.3C464.3,399.8,458.2,394.4,458.2,394.4z"/>
		
			<linearGradient id="SVGID_00000180325948270781927340000003392163004594993082_" gradientUnits="userSpaceOnUse" x1="126.8215" y1="6613.0977" x2="135.7414" y2="6581.0806" gradientTransform="matrix(-0.6049 -0.7963 0.7963 -0.6049 -4693.3979 4501.4082)">
			<stop  offset="0" style="stop-color:#221F1F;stop-opacity:0"/>
			<stop  offset="7.361960e-02" style="stop-color:#E5E5E4;stop-opacity:0"/>
			<stop  offset="0.4153" style="stop-color:#C692B5;stop-opacity:0.4515"/>
			<stop  offset="0.7007" style="stop-color:#B45695;stop-opacity:0.8287"/>
			<stop  offset="0.8304" style="stop-color:#AD3A8A"/>
		</linearGradient>
		<path style="opacity:0.5;fill:url(#SVGID_00000180325948270781927340000003392163004594993082_);" d="M475.9,442.8
			c0,0,0.3-11.5,1.8-20c1.4-8.1,4.7-19.3-0.9-28.8c-5.5-9.5-15-15-15-15s-1.1,6.5-2.7,13.8c0,0,9,8.9,9.9,22
			C469.5,421.1,475.9,442.8,475.9,442.8z"/>
		<g class="st9">
			
				<linearGradient id="SVGID_00000086684021729640774930000000556719765237819524_" gradientUnits="userSpaceOnUse" x1="105.9662" y1="6580.2832" x2="154.8941" y2="6580.2832" gradientTransform="matrix(-0.6049 -0.7963 0.7963 -0.6049 -4693.3979 4501.4082)">
				<stop  offset="0" style="stop-color:#221F1F;stop-opacity:0"/>
				<stop  offset="7.361960e-02" style="stop-color:#E5E5E4;stop-opacity:0"/>
				<stop  offset="0.4153" style="stop-color:#C692B5;stop-opacity:0.4515"/>
				<stop  offset="0.7007" style="stop-color:#B45695;stop-opacity:0.8287"/>
				<stop  offset="0.8304" style="stop-color:#AD3A8A"/>
			</linearGradient>
			<path style="fill:url(#SVGID_00000086684021729640774930000000556719765237819524_);" d="M475.1,442.2c0,0-1.6-15.9-3.6-24.6
				c-2.5-10.8-4.9-20.3-12.4-24.7"/>
		</g>
		
			<linearGradient id="SVGID_00000014632435211307778600000006576905916419212731_" gradientUnits="userSpaceOnUse" x1="106.896" y1="6537.4712" x2="67.4649" y2="6552.439" gradientTransform="matrix(-0.6049 -0.7963 0.7963 -0.6049 -4693.3979 4501.4082)">
			<stop  offset="0" style="stop-color:#221F1F;stop-opacity:0"/>
			<stop  offset="7.361960e-02" style="stop-color:#E5E5E4;stop-opacity:0"/>
			<stop  offset="0.4153" style="stop-color:#C692B5;stop-opacity:0.4515"/>
			<stop  offset="0.7007" style="stop-color:#B45695;stop-opacity:0.8287"/>
			<stop  offset="0.8304" style="stop-color:#AD3A8A"/>
		</linearGradient>
		<path style="opacity:0.4;fill:url(#SVGID_00000014632435211307778600000006576905916419212731_);" d="M469.4,489.7
			c0,0-5.4-2,3-3.4c8.3-1.4,5.5-1,5.5-1l2.7-0.3c0,0,6.1-5.8,0.9-18.2c-9.3,2-20.5,2.7-34.3-0.5c0.1,4.1,3,9.5,4.8,11.8
			c3,4,4.9,5.8,8.3,7.9C463.8,488.1,466.5,489.1,469.4,489.7z"/>
		
			<linearGradient id="SVGID_00000109744867099786597000000004010743462535162526_" gradientUnits="userSpaceOnUse" x1="-3570.9043" y1="505.8172" x2="-3671.1807" y2="425.6862" gradientTransform="matrix(-0.9625 0.2714 0.2714 0.9625 -3147.0081 982.8135)">
			<stop  offset="0" style="stop-color:#221F1F;stop-opacity:0"/>
			<stop  offset="0.3431" style="stop-color:#E5E5E4;stop-opacity:0"/>
			<stop  offset="0.3793" style="stop-color:#DDD2D9;stop-opacity:5.586135e-02"/>
			<stop  offset="0.4647" style="stop-color:#CEA9C2;stop-opacity:0.1878"/>
			<stop  offset="0.5518" style="stop-color:#C388AF;stop-opacity:0.3222"/>
			<stop  offset="0.639" style="stop-color:#BA6FA1;stop-opacity:0.4568"/>
			<stop  offset="0.7263" style="stop-color:#B45996;stop-opacity:0.5916"/>
			<stop  offset="0.8138" style="stop-color:#B0498F;stop-opacity:0.7267"/>
			<stop  offset="0.9018" style="stop-color:#AE3E8B;stop-opacity:0.8625"/>
			<stop  offset="0.9908" style="stop-color:#AD3A8A"/>
		</linearGradient>
		<path style="fill:url(#SVGID_00000109744867099786597000000004010743462535162526_);" d="M433.5,468.1c0,0,14.2,5,35.8-24.4
			c21.6-29.5,16-41.3,15.6-42.8c0,0,5.8,20.3,5.8,28.9c0,6.7-32.3,61.3-51.7,45.3C437.5,473.6,434.6,469.8,433.5,468.1z"/>
	</g>
	<g>
		<path class="st1" d="M769.8,397.5h-18.6c-2.6,0-4.6,2.1-4.6,4.6v69.4c0,2.6,2.1,4.6,4.6,4.6h15.5c2.6,0,4.6-2.1,4.6-4.6v-2.8
			c0-2.6-2.1-4.6-4.6-4.6h-3.4c-2.6,0-4.6-2.1-4.6-4.6v-45.3c0-2.6,2.1-4.6,4.6-4.6h3.3c1,0,1.9,0.3,2.7,0.9l42.9,31
			c3.1,2.2,7.3,0,7.3-3.7v-2c0-1.5-0.7-2.8-1.9-3.7l-45-33.6C771.7,397.8,770.7,397.5,769.8,397.5z"/>
		<path class="st1" d="M820.3,476.2h18.6c2.6,0,4.6-2.1,4.6-4.6v-69.4c0-2.6-2.1-4.6-4.6-4.6h-15.5c-2.6,0-4.6,2.1-4.6,4.6v2.8
			c0,2.6,2.1,4.6,4.6,4.6h3.4c2.6,0,4.6,2.1,4.6,4.6v45.3c0,2.6-2.1,4.6-4.6,4.6h-3.3c-1,0-1.9-0.3-2.7-0.9l-42.9-31
			c-3.1-2.2-7.3,0-7.3,3.7v2c0,1.5,0.7,2.8,1.9,3.7l45,33.6C818.4,475.9,819.3,476.2,820.3,476.2z"/>
	</g>
	<g>
		<path class="st1" d="M1037,410.3c-0.1-0.3-0.4-0.4-0.6-0.2c-2.2,1.5-3.5,2.2-5.4,3.3l0,0.3l0-0.3c0,0-8.5,4.5-18.7,8.1
			c-2.6,1-5.1,1.8-7.3,2.6c1.6-2.3,2.7-4.8,3.3-7.6c1.2-5.6,0.3-11.2-2.6-15.7c-2.9-4.7-7.8-7.9-13.5-9.2c-2.4-0.5-4.8-0.6-7.2-0.3
			c-8.8,1.2-15.9,7.8-17.8,16.4c-1.3,5.9,0.1,11.7,3.3,16.3c-10.8,3.1-17.9,10.4-18.5,14.7h0c-1,0.7-2,1.3-3,2
			c-4.8,3-9.6,6-11.6,7.2c-0.1,0-0.2,0.1-0.3,0.1c-3.3-4-4.9-9.4-4-15c1.7-10.2,11.5-17.1,21.7-15.4c1.6,0.3,3.1,0.7,4.5,1.4
			c0.4-0.6,7.9-11,0.2-20.3c-2.7-3.3-6.6-5.6-10.8-6.3c-0.1,0-0.1,0-0.2,0c-17.6-2.9-34.2,8.9-37.1,26.5c-2.4,14.2,4.9,27.8,17.1,34
			c-6.3,3.4-12,6.3-18.7,10.1c0,0,0,0-0.1,0.1c-2.9,1.7-5,4.1-6.5,6.2c-2.2,3-1.6,7.2,1.5,9.3l0.1,0.1c0.9,0.6,2,0.3,2.5-0.7
			c0.4-0.8,3.1-7.3,4.4-10.2c0.4,0.8,0.8,1.5,1,2c0.2,0.5,0.8,0.7,1.3,0.5c10.2-3.3,17.7-3.9,23-4c0,0,0,0-0.1,0.1
			c-0.6,0.7-1.4,2.5-2.1,5c-0.4,1.4-0.5,2.4-0.5,3.2c0,0,0,0,0,0c0,0,0,0.1,0,0.1c0.1,1.6,0.8,2.3,1.9,2.2c0.1,0,0.1,0,0.1,0
			c0,0,0,0,0,0c0,0,0,0,0,0c0.7-0.1,1.5-2.7,2-4.5c0.2-0.6,0.3-1.1,0.4-1.7c0-0.1,0-0.2,0-0.2c1.4,3.1,3.9,7,8.1,8.3
			c8.1,2.5,25-19.4,25-19.4c20.1-7.2,26.7-12.3,32.4-20.6l0.5-0.8c0.2-0.1,2.2-0.9,2.3-1c10.9-5,22.5-13.6,24.3-14.9l0,0
			c0,0,3.3-2.4,5.5-5.6C1038.3,414.1,1037.4,411.4,1037,410.3z M977.5,447.6L977,441c-4.1,1.2-9.2,0.9-12.3-3.4
			c-0.3-0.4-0.1-1,0.4-1.1l0,0c2.8,4.5,8,4.3,12.2,3.2l0,0c2.9-0.8,4.9-2,6.6-3.1c0.1-0.1,0.3-0.1,0.4,0
			C986,439.7,985.2,445.6,977.5,447.6z M998.5,428.6c-1.8,1.2-3.8,2-5.8,2.6c-6.7,2.1-11.1-1.5-11.9-2.6c-0.1-0.1,0-0.2,0.1-0.2
			c1.2,0.5,5.9,2.2,9.8,0.9c-1.2-4,0.8-11.6,11.2-14c0,0,1-0.2,1.5-0.3c0,0,0,0,0,0c0,0,0.9,0,1.4-0.6c0.2-0.1,0.3-0.3,0.4-0.5
			c0.2-0.1,0.2-0.8,0.2-1c0-0.1,0-0.1,0-0.1c0,0,0,0,0,0c0-0.3,0-0.7-0.5-1.2c-0.6-0.5-2.4-1-2.6-1c-13.3-4.7-20-3.7-20.4-3.8
			c0,0,0,0,0,0c0,0,0,0,0,0c0,0,0,0,0,0c-0.1-0.3-0.5-1-0.5-1.1c-1.2-3.1-0.7-5.4-0.8-5.6c-0.5-0.6-1.6-1-2.4-0.3
			c-1.8,1.6-2.7,5.9-2.7,5.8c-0.2-1.2-0.3-3.1,0.4-6.1c0.2-1-0.2-2.1-1.1-2.3c2.9-2.5,6.4-4.2,10.4-4.7c2.2-0.3,4.5-0.2,6.7,0.3
			c5.4,1.2,10,4.2,12.7,8.6c2.7,4.3,3.6,9.6,2.5,14.8C1005.9,421.3,1002.9,425.7,998.5,428.6z"/>
	</g>
</g>
</svg>
