<?xml version="1.0" encoding="utf-8"?>
<!-- Generator: Adobe Illustrator 25.4.5, SVG Export Plug-In . SVG Version: 6.00 Build 0)  -->
<svg version="1.1" id="Layer_1" xmlns="http://www.w3.org/2000/svg" xmlns:xlink="http://www.w3.org/1999/xlink" x="0px" y="0px"
	 viewBox="0 0 1500 500" style="enable-background:new 0 0 1500 500;" xml:space="preserve">
<style type="text/css">
	.st0{display:none;}
	.st1{display:inline;}
	.st2{fill:#FFFFFF;}
	.st3{fill:#EA4E8D;}
	.st4{fill:#734C9F;}
	.st5{fill:#4D52A3;}
	.st6{fill:url(#SVGID_1_);}
	.st7{opacity:0.5;fill:url(#SVGID_00000137114873542615183870000018276172941225821333_);}
	.st8{opacity:0.5;fill:url(#SVGID_00000010278480164383011480000017334607578569606580_);}
	.st9{opacity:0.5;fill:url(#SVGID_00000165923723401706185740000012417344016123375014_);}
	.st10{opacity:0.5;fill:url(#SVGID_00000169520046688211164960000002057950674642023334_);}
	.st11{opacity:0.5;}
	.st12{fill:url(#SVGID_00000058580821762063146990000000606445232839454364_);}
	.st13{opacity:0.4;fill:url(#SVGID_00000043442203262994590910000016101300131989054863_);}
	.st14{fill:url(#SVGID_00000181769686712942087970000000013985400348887970_);}
</style>
<g>
	<g class="st0">
		<g class="st1">
			<path class="st2" d="M1304.6,122.9c2.5,1.4,4.5,3.4,6,6c1.4,2.5,2.2,5.3,2.2,8.4c0,3.1-0.7,5.9-2.2,8.4c-1.5,2.6-3.5,4.6-6,6
				c-2.5,1.5-5.3,2.2-8.4,2.2c-3.1,0-5.9-0.7-8.4-2.2c-2.5-1.5-4.5-3.5-6-6c-1.5-2.5-2.2-5.3-2.2-8.4c0-3,0.7-5.8,2.2-8.4
				c1.5-2.5,3.5-4.5,6-6c2.5-1.5,5.4-2.2,8.5-2.2C1299.3,120.7,1302.1,121.4,1304.6,122.9z M1303.6,150.2c2.3-1.3,4-3.1,5.4-5.4
				c1.3-2.3,2-4.8,2-7.6c0-2.8-0.6-5.3-1.9-7.5c-1.3-2.2-3.1-4-5.3-5.3c-2.2-1.3-4.8-2-7.5-2c-2.8,0-5.3,0.7-7.6,2
				c-2.3,1.3-4.1,3.1-5.4,5.4c-1.3,2.3-2,4.8-2,7.5c0,2.7,0.7,5.2,2,7.5c1.3,2.3,3.1,4.1,5.3,5.4c2.3,1.3,4.8,2,7.5,2
				C1298.8,152.2,1301.3,151.5,1303.6,150.2z M1303.4,137.8c-0.7,1-1.8,1.8-3.1,2.2l4.4,6.8h-2.5l-4.1-6.4c-0.3,0-0.6,0-1.1,0h-4.9
				v6.3h-2.4v-19h7.3c2.3,0,4.2,0.6,5.5,1.7c1.3,1.1,2,2.7,2,4.6C1304.5,135.6,1304.1,136.8,1303.4,137.8z M1300.7,137.3
				c0.9-0.8,1.4-1.8,1.4-3.2c0-1.3-0.5-2.4-1.4-3.1c-0.9-0.7-2.2-1.1-3.9-1.1h-4.8v8.6h4.8C1298.5,138.4,1299.8,138.1,1300.7,137.3z
				"/>
		</g>
		<g class="st1">
			<path class="st2" d="M253.6,284.4v32.7H117.3v-176h133v32.7h-92.5V212h81.7v31.7h-81.7v40.7H253.6z"/>
			<path class="st2" d="M272.7,130.5h39.2v186.5h-39.2V130.5z"/>
			<path class="st2" d="M339.8,156.7c-4.5-4.2-6.8-9.4-6.8-15.6c0-6.2,2.3-11.4,6.8-15.6c4.5-4.2,10.4-6.3,17.6-6.3
				c7.2,0,13.1,2,17.6,6c4.5,4,6.8,9.1,6.8,15.1c0,6.5-2.3,11.9-6.8,16.2c-4.5,4.3-10.4,6.4-17.6,6.4
				C350.2,163,344.3,160.9,339.8,156.7z M337.8,181.8H377v135.3h-39.2V181.8z"/>
			<path class="st2" d="M488.9,317.1l-29.7-41.5l-30.7,41.5h-42.7l52-68.1l-50.3-67.1h44l28.7,39.5l29.4-39.5h41.7l-50.3,66.1
				l52.3,69.1H488.9z"/>
			<path class="st2" d="M543.9,156.7c-4.5-4.2-6.8-9.4-6.8-15.6c0-6.2,2.3-11.4,6.8-15.6c4.5-4.2,10.4-6.3,17.6-6.3
				c7.2,0,13.1,2,17.6,6c4.5,4,6.8,9.1,6.8,15.1c0,6.5-2.3,11.9-6.8,16.2c-4.5,4.3-10.4,6.4-17.6,6.4
				C554.3,163,548.5,160.9,543.9,156.7z M541.9,181.8h39.2v135.3h-39.2V181.8z"/>
			<path class="st2" d="M663.5,184.8c8-3.4,17.1-5,27.5-5V216c-4.4-0.3-7.3-0.5-8.8-0.5c-11.2,0-20,3.1-26.4,9.4
				c-6.4,6.3-9.6,15.7-9.6,28.3v63.9H607V181.8h37.5v17.9C649.2,193.1,655.5,188.2,663.5,184.8z"/>
			<path class="st2" d="M738.2,308.4c-14.5-7.8-25.9-18.6-34.2-32.4c-8.3-13.8-12.4-29.5-12.4-46.9c0-17.4,4.1-33.1,12.4-46.9
				c8.3-13.8,19.7-24.6,34.2-32.4c14.5-7.8,30.8-11.7,48.9-11.7c15.2,0,29,2.7,41.4,8c12.3,5.4,22.7,13.1,31,23.1l-26.1,24.1
				c-11.9-13.7-26.6-20.6-44.2-20.6c-10.9,0-20.6,2.4-29.2,7.2c-8.5,4.8-15.2,11.4-20,20c-4.8,8.5-7.2,18.3-7.2,29.2
				c0,10.9,2.4,20.6,7.2,29.2c4.8,8.5,11.4,15.2,20,20c8.5,4.8,18.3,7.2,29.2,7.2c17.6,0,32.3-7,44.2-20.9l26.1,24.1
				c-8.4,10.2-18.8,18-31.2,23.4c-12.4,5.4-26.2,8-41.5,8C768.9,320.1,752.7,316.2,738.2,308.4z"/>
			<path class="st2" d="M894.8,310.2c-11.3-5.9-20.2-14.2-26.5-24.8c-6.4-10.6-9.6-22.5-9.6-36c0-13.4,3.2-25.4,9.6-36
				c6.4-10.6,15.2-18.8,26.5-24.8c11.3-5.9,24.1-8.9,38.3-8.9c14.2,0,27,3,38.2,8.9c11.2,6,20,14.2,26.4,24.8
				c6.4,10.6,9.6,22.5,9.6,36c0,13.4-3.2,25.4-9.6,36c-6.4,10.6-15.2,18.8-26.4,24.8c-11.2,6-24,8.9-38.2,8.9
				C918.9,319.1,906.1,316.1,894.8,310.2z M957.9,276.7c6.5-6.8,9.7-15.9,9.7-27.3c0-11.4-3.2-20.5-9.7-27.3
				c-6.5-6.8-14.7-10.2-24.8-10.2s-18.4,3.4-24.9,10.2c-6.5,6.8-9.8,15.9-9.8,27.3c0,11.4,3.3,20.5,9.8,27.3
				c6.5,6.8,14.8,10.2,24.9,10.2S951.4,283.5,957.9,276.7z"/>
			<path class="st2" d="M1145.7,194.9c10.3,10.1,15.5,25,15.5,44.8v77.4h-39.2v-71.4c0-10.7-2.3-18.7-7-24
				c-4.7-5.3-11.5-7.9-20.4-7.9c-9.9,0-17.8,3.1-23.6,9.2c-5.9,6.1-8.8,15.2-8.8,27.3v66.9h-39.2V181.8h37.5v15.8
				c5.2-5.7,11.6-10.1,19.4-13.2c7.7-3.1,16.2-4.7,25.4-4.7C1121.8,179.8,1135.4,184.8,1145.7,194.9z"/>
			<path class="st2" d="M1229,184.8h34.7V215H1230v102.1h-39.2V215H1170v-30.2h20.9v-6c0-15.4,4.6-27.7,13.7-36.7
				c9.1-9.1,22-13.6,38.6-13.6c5.9,0,11.4,0.6,16.7,1.9c5.3,1.3,9.7,3.1,13.2,5.4l-10.3,28.4c-4.5-3.2-9.8-4.8-15.8-4.8
				c-11.9,0-17.9,6.5-17.9,19.6V184.8z"/>
		</g>
	</g>
	<g>
		<g>
			<path class="st3" d="M1347.3,294.3c-15.2-11.4-24.3-30.1-24.3-50.2c0-1,0-2,0.1-3c0.7-9.8,5.5-27.2,24.1-54.2
				c11.7-16.9,24.5-31.3,29.8-36.4l2.3-2.2l2.7,3.1c6.5,7.4,23.9,27.1,37.1,48.7l-5.2,3.2c-12-19.6-27.6-37.8-35-46.1
				c-13.2,13.6-47.8,56.1-49.8,84.4c-0.1,0.9-0.1,1.7-0.1,2.6c0,18.1,8.2,35,21.9,45.3L1347.3,294.3z"/>
		</g>
		<g>
			<path class="st4" d="M1430.6,322.1V316c24.5,0,44.4-21.8,44.4-48.6c0-12-7.8-35.2-44.5-77.1c-8.4,8.7-27.2,31.2-37.4,52.8
				l-5.5-2.6c11.7-24.6,34.1-50.3,41-56.8l2.3-2.2l2.7,3c31.6,35.8,47.6,63.7,47.6,83C1481.1,297.6,1458.5,322.1,1430.6,322.1z"/>
		</g>
		<g>
			<path class="st5" d="M1386.3,368.9c-26.2,0-47.6-23.1-47.6-51.6c0-0.8,0-1.7,0.1-2.6c0.9-12.1,7.7-27.4,20.3-45.7
				c9.8-14.2,20.6-26.3,25.1-30.6l2.3-2.2l2.6,3c29.7,33.6,44.8,59.9,44.8,78.1C1433.9,345.8,1412.6,368.9,1386.3,368.9z
				 M1386.2,245.1c-5.1,5.3-13.9,15.6-22,27.4c-11.8,17.1-18.5,31.9-19.2,42.7c-0.1,0.7-0.1,1.4-0.1,2.1c0,25.1,18.6,45.5,41.5,45.5
				c22.9,0,41.5-20.4,41.5-45.5C1427.8,306.1,1420.6,284.4,1386.2,245.1z"/>
		</g>
	</g>
</g>
<g>
	<g>
		<g>
			<g>
				<path class="st3" d="M661,457.3c0.1-0.1-0.1-0.3-0.2-0.2c-2.3,1.7-10.5,7.1-19.3,7.1c-7.3,0-9.3-2.8-13.4-2.8
					c-2.8,0-4.7,1-5.4,1.4c-0.1,0.1-0.1,0.2,0.1,0.2c1.4,0.1,6,0.7,6,3.1c0,2.8-6.1,3.9-10.4,3.9c-4.2,0-11.9,1.1-16,6.7
					c-0.1,0.1,0,0.3,0.2,0.2c1.3-0.6,5.3-2.2,11-2.2c4.9,0,9.8,1.5,16.3,1.5C636.4,476.3,650.6,472.2,661,457.3z"/>
			</g>
			<g>
				<path class="st3" d="M614.9,477.9c-6.7,0-11.5,0.9-14.7,4.2c-3.5,3.6-2.8,5.3-6.5,7.3c-0.1,0.1-0.1,0.3,0.1,0.3
					c1.6,0,6.2-0.5,10.1-4.6c0,0,4.5-5.9,11.2-7.1C615.2,478,615.3,477.9,614.9,477.9z"/>
			</g>
			<g>
				<path class="st3" d="M599.9,461.3c-10.4-2.3-13.8-17.7-28.5-17.7c-6.3,0-9.3,2.2-10.1,3.1c-0.1,0.1-0.1,0.2,0.1,0.1
					c0.7-0.3,2.3-0.8,4.8-0.8c9,0,7,15.3,33.6,15.5C599.9,461.5,600,461.3,599.9,461.3z"/>
			</g>
			<g>
				<path class="st3" d="M568.9,452.2c0.2,0,0.2-0.2,0.1-0.3c-1-0.6-3.7-2.2-6.8-2.2c-9,0-9,8-16,8.4c-0.2,0-0.2,0.2-0.1,0.3
					c1,0.5,3.3,1.6,6.2,1.6C560.7,460.1,559.7,452.5,568.9,452.2z"/>
			</g>
			<g>
				<path class="st3" d="M613.7,445.1c-1.2,0.2-3.2,0.6-6.2,0.6c-7.7,0-12.1-9.2-26.4-9.2c-6.2,0-10.6,3.1-11.8,4
					c-0.1,0.1,0,0.2,0.1,0.2c1.7-0.4,3.5-0.9,8.8-0.9c8.7,0,9,7.7,26.7,7.7c4,0,7.5-1.5,8.9-2.3C613.9,445.2,613.8,445,613.7,445.1z
					"/>
			</g>
			<g>
				<path class="st3" d="M622.3,413.9c0.1-0.1,0.3,0,0.2,0.2c-2.2,3.1-11.1,14-29.5,14c-9.6,0-11-3-16.9-3c-5.5,0-9.2,4.7-9.7,8
					c0,0.1-0.2,0.1-0.2,0c0-3.9,1.7-15.3,14.4-15.3c6.9,0,10.8,3.7,19.9,3.7C612.6,421.4,620,415.8,622.3,413.9z"/>
			</g>
			<g>
				<path class="st3" d="M591.7,450.1c1.7,1.9,9.7,10.2,22.7,10.2c14.6,0,20.9-23.4,31.8-23.4c7.2,0,7.3,5.2,7.3,6.6
					c0,4.2-5.4,15.1-16.7,16.2c-0.1,0-0.2,0.2,0,0.2c1.6,0.2,4.3,0.4,6.2,0.4c2.8,0,29.5-3.6,29.5-34.6c0-28,15-26.6,17.9-26.1
					c0.1,0,0.2-0.1,0.1-0.2c-2-1.6-11.5-8.3-28.3-8.3c-32.4,0-34,39.1-64.4,39.5c-0.1,0-0.2,0.2-0.1,0.2c1.5,0.8,6.8,3.4,10.3,3.4
					c12.2,0,12.7-9.1,20.4-9.1c4.5,0,5.8,2.6,5.8,5.7c0,2.8-5.7,20.8-31.8,20.8c-6.2,0-9.5-1.3-10.6-1.7
					C591.7,449.9,591.6,450,591.7,450.1z M665.4,395.9c0-0.1,0-0.2,0.1-0.1c2.9,0.2,5.6,0.5,8,1c0.1,0,0.1,0.1,0.1,0.2
					c-0.3,0.5-1.7,2.1-4.4,2.1C666.5,399.1,665.6,396.5,665.4,395.9z"/>
			</g>
			<g>
				<path class="st3" d="M630.1,404c0.1,0,0.1,0.1,0.1,0.2c-1.3,1.5-11.8,12.7-26.1,12.7c-4.2,0-7.2-1.2-8.4-1.9
					c-0.1-0.1-0.2-0.3,0.1-0.2c0.9,0.2,2.7,0.5,4.7,0.5C610.9,415.3,611.5,403.7,630.1,404z"/>
			</g>
		</g>
		<g>
			<g>
				<path class="st3" d="M572,461.8H571v-3.5h-1.2v-0.9h3.3v0.9H572V461.8z M565.6,461.8h-0.9l0.2-4.4h1l1.1,2.8l1-2.8h1l0.1,4.4
					h-0.9l-0.1-2.5l-0.7,2h-0.9l-0.8-2L565.6,461.8z"/>
			</g>
		</g>
	</g>
	<g>
		
			<linearGradient id="SVGID_1_" gradientUnits="userSpaceOnUse" x1="71.5046" y1="6565.1538" x2="163.5068" y2="6565.1538" gradientTransform="matrix(-0.6049 -0.7963 0.7963 -0.6049 -4693.3979 4501.4082)">
			<stop  offset="0" style="stop-color:#221F1F;stop-opacity:0"/>
			<stop  offset="7.361960e-02" style="stop-color:#E5E5E4;stop-opacity:0"/>
			<stop  offset="0.3814" style="stop-color:#E8A8BC;stop-opacity:0.4068"/>
			<stop  offset="0.6893" style="stop-color:#E96D9A;stop-opacity:0.8136"/>
			<stop  offset="0.8304" style="stop-color:#EA4E8D"/>
		</linearGradient>
		<path class="st6" d="M458.2,406.8c0,0-10.7,11.7-19.5,19.6c-8.8,7.9-10.8,15.8-10.7,20.5c0.8,28.3,20.6,39.1,40.4,38.6
			c19-0.5,25.6-22.2,23-42.7c-2.6-20.5-2.4-49.8-22.1-68.4C469.3,374.3,469.9,394.6,458.2,406.8z"/>
		
			<linearGradient id="SVGID_00000023990084820654816450000005405027310976546229_" gradientUnits="userSpaceOnUse" x1="155.9993" y1="6598.5649" x2="87.4564" y2="6543.792" gradientTransform="matrix(-0.6049 -0.7963 0.7963 -0.6049 -4693.3979 4501.4082)">
			<stop  offset="0" style="stop-color:#221F1F;stop-opacity:0"/>
			<stop  offset="7.361960e-02" style="stop-color:#E5E5E4;stop-opacity:0"/>
			<stop  offset="0.3814" style="stop-color:#E8A8BC;stop-opacity:0.4068"/>
			<stop  offset="0.6893" style="stop-color:#E96D9A;stop-opacity:0.8136"/>
			<stop  offset="0.8304" style="stop-color:#EA4E8D"/>
		</linearGradient>
		<path style="opacity:0.5;fill:url(#SVGID_00000023990084820654816450000005405027310976546229_);" d="M451.3,407.4
			c-9.8,11-23.3,27.7-23.3,39.5c0,11.4,22.2,17.2,38.5,17.2c11.9,0,35.8-5.6,35.8-14.6c0-19.5-1.6-19.8-10.2-42.6
			c-2.2-5.8,7.3,43.1-25.4,41.7c-32.7-1.4-32.9-19.8-13-34.9c7.9-6,6.7-9.3,6.7-9.3"/>
		
			<linearGradient id="SVGID_00000003786525951077888460000000280784569327344007_" gradientUnits="userSpaceOnUse" x1="70.638" y1="6570.7012" x2="170.7169" y2="6570.7012" gradientTransform="matrix(-0.6049 -0.7963 0.7963 -0.6049 -4693.3979 4501.4082)">
			<stop  offset="0" style="stop-color:#221F1F;stop-opacity:0"/>
			<stop  offset="7.361960e-02" style="stop-color:#E5E5E4;stop-opacity:0"/>
			<stop  offset="0.3814" style="stop-color:#E8A8BC;stop-opacity:0.4068"/>
			<stop  offset="0.6893" style="stop-color:#E96D9A;stop-opacity:0.8136"/>
			<stop  offset="0.8304" style="stop-color:#EA4E8D"/>
		</linearGradient>
		<path style="opacity:0.5;fill:url(#SVGID_00000003786525951077888460000000280784569327344007_);" d="M448.9,410
			c0,0,1.4,10.6-1.4,24.8c-2.8,14.2-7.6,45.8,23.7,51.1c14.7-0.3,19-20.4,19-20.4s9.2-79.7-27.7-95c-0.5,5.8-1,17.5-5.4,27.6
			C457.1,398.1,454.9,403.5,448.9,410z"/>
		
			<linearGradient id="SVGID_00000082351198974069493040000017577983630647144357_" gradientUnits="userSpaceOnUse" x1="157.7147" y1="6558.3926" x2="74.8815" y2="6589.8354" gradientTransform="matrix(-0.6049 -0.7963 0.7963 -0.6049 -4693.3979 4501.4082)">
			<stop  offset="0" style="stop-color:#221F1F;stop-opacity:0"/>
			<stop  offset="7.361960e-02" style="stop-color:#E5E5E4;stop-opacity:0"/>
			<stop  offset="0.3814" style="stop-color:#E8A8BC;stop-opacity:0.4068"/>
			<stop  offset="0.6893" style="stop-color:#E96D9A;stop-opacity:0.8136"/>
			<stop  offset="0.8304" style="stop-color:#EA4E8D"/>
		</linearGradient>
		<path style="opacity:0.5;fill:url(#SVGID_00000082351198974069493040000017577983630647144357_);" d="M458.2,394.4
			c0,0,3.2-6.9,4.2-23.9c0,0,8.8,1.4,18,15.6c6.6,10.2,15.6,27.2,19.8,42.1c5.6,19.9,0.3,38.3-10,47.3
			c-12.4,10.7-24.9,11.3-32.1,5.7c-6.5-5.1-10.7-10.3-12-19.7l2.4,0.6c0,0,1.4,6.5,6.2,12.4c3.6,4.5,13.2,10.8,19.3,8
			c9-4,8.8-12.8,5.8-19.9c-3.3-7.8-13.4-14.3-15.4-25.9c-2.2-12.6,1.8-15.9,0.8-27.3C464.3,399.8,458.2,394.4,458.2,394.4z"/>
		
			<linearGradient id="SVGID_00000178165023644754916090000017648288421207494819_" gradientUnits="userSpaceOnUse" x1="126.8215" y1="6613.0977" x2="135.7414" y2="6581.0806" gradientTransform="matrix(-0.6049 -0.7963 0.7963 -0.6049 -4693.3979 4501.4082)">
			<stop  offset="0" style="stop-color:#221F1F;stop-opacity:0"/>
			<stop  offset="7.361960e-02" style="stop-color:#E5E5E4;stop-opacity:0"/>
			<stop  offset="0.3814" style="stop-color:#E8A8BC;stop-opacity:0.4068"/>
			<stop  offset="0.6893" style="stop-color:#E96D9A;stop-opacity:0.8136"/>
			<stop  offset="0.8304" style="stop-color:#EA4E8D"/>
		</linearGradient>
		<path style="opacity:0.5;fill:url(#SVGID_00000178165023644754916090000017648288421207494819_);" d="M475.9,442.8
			c0,0,0.3-11.5,1.8-20c1.4-8.1,4.7-19.3-0.9-28.8c-5.5-9.5-15-15-15-15s-1.1,6.5-2.7,13.8c0,0,9,8.9,9.9,22
			C469.5,421.1,475.9,442.8,475.9,442.8z"/>
		<g class="st11">
			
				<linearGradient id="SVGID_00000096031389352006811800000003266668830042195872_" gradientUnits="userSpaceOnUse" x1="105.9662" y1="6580.2832" x2="154.8941" y2="6580.2832" gradientTransform="matrix(-0.6049 -0.7963 0.7963 -0.6049 -4693.3979 4501.4082)">
				<stop  offset="0" style="stop-color:#221F1F;stop-opacity:0"/>
				<stop  offset="7.361960e-02" style="stop-color:#E5E5E4;stop-opacity:0"/>
				<stop  offset="0.3814" style="stop-color:#E8A8BC;stop-opacity:0.4068"/>
				<stop  offset="0.6893" style="stop-color:#E96D9A;stop-opacity:0.8136"/>
				<stop  offset="0.8304" style="stop-color:#EA4E8D"/>
			</linearGradient>
			<path style="fill:url(#SVGID_00000096031389352006811800000003266668830042195872_);" d="M475.1,442.2c0,0-1.6-15.9-3.6-24.6
				c-2.5-10.8-4.9-20.3-12.4-24.7"/>
		</g>
		
			<linearGradient id="SVGID_00000015344346769498610530000000174728444544945798_" gradientUnits="userSpaceOnUse" x1="106.896" y1="6537.4712" x2="67.4649" y2="6552.439" gradientTransform="matrix(-0.6049 -0.7963 0.7963 -0.6049 -4693.3979 4501.4082)">
			<stop  offset="0" style="stop-color:#221F1F;stop-opacity:0"/>
			<stop  offset="7.361960e-02" style="stop-color:#E5E5E4;stop-opacity:0"/>
			<stop  offset="0.3814" style="stop-color:#E8A8BC;stop-opacity:0.4068"/>
			<stop  offset="0.6893" style="stop-color:#E96D9A;stop-opacity:0.8136"/>
			<stop  offset="0.8304" style="stop-color:#EA4E8D"/>
		</linearGradient>
		<path style="opacity:0.4;fill:url(#SVGID_00000015344346769498610530000000174728444544945798_);" d="M469.4,489.7
			c0,0-5.4-2,3-3.4c8.3-1.4,5.5-1,5.5-1l2.7-0.3c0,0,6.1-5.8,0.9-18.2c-9.3,2-20.5,2.7-34.3-0.5c0.1,4.1,3,9.5,4.8,11.8
			c3,4,4.9,5.8,8.3,7.9C463.8,488.1,466.5,489.1,469.4,489.7z"/>
		
			<linearGradient id="SVGID_00000057145297432475764520000017906692021564945540_" gradientUnits="userSpaceOnUse" x1="-3570.9043" y1="505.8172" x2="-3671.1807" y2="425.6862" gradientTransform="matrix(-0.9625 0.2714 0.2714 0.9625 -3147.0081 982.8135)">
			<stop  offset="0" style="stop-color:#221F1F;stop-opacity:0"/>
			<stop  offset="0.3431" style="stop-color:#E5E5E4;stop-opacity:0"/>
			<stop  offset="0.3509" style="stop-color:#E5E2E2;stop-opacity:1.201278e-02"/>
			<stop  offset="0.4403" style="stop-color:#E7BECA;stop-opacity:0.1501"/>
			<stop  offset="0.5315" style="stop-color:#E89EB6;stop-opacity:0.2908"/>
			<stop  offset="0.6226" style="stop-color:#E985A6;stop-opacity:0.4316"/>
			<stop  offset="0.714" style="stop-color:#E9709B;stop-opacity:0.5726"/>
			<stop  offset="0.8056" style="stop-color:#EA5E93;stop-opacity:0.714"/>
			<stop  offset="0.8976" style="stop-color:#EA538E;stop-opacity:0.8561"/>
			<stop  offset="0.9908" style="stop-color:#EA4E8D"/>
		</linearGradient>
		<path style="fill:url(#SVGID_00000057145297432475764520000017906692021564945540_);" d="M433.5,468.1c0,0,14.2,5,35.8-24.4
			c21.6-29.5,16-41.3,15.6-42.8c0,0,5.8,20.3,5.8,28.9c0,6.7-32.3,61.3-51.7,45.3C437.5,473.6,434.6,469.8,433.5,468.1z"/>
	</g>
	<g>
		<path class="st3" d="M769.8,397.5h-18.6c-2.6,0-4.6,2.1-4.6,4.6v69.4c0,2.6,2.1,4.6,4.6,4.6h15.5c2.6,0,4.6-2.1,4.6-4.6v-2.8
			c0-2.6-2.1-4.6-4.6-4.6h-3.4c-2.6,0-4.6-2.1-4.6-4.6v-45.3c0-2.6,2.1-4.6,4.6-4.6h3.3c1,0,1.9,0.3,2.7,0.9l42.9,31
			c3.1,2.2,7.3,0,7.3-3.7v-2c0-1.5-0.7-2.8-1.9-3.7l-45-33.6C771.7,397.8,770.7,397.5,769.8,397.5z"/>
		<path class="st3" d="M820.3,476.2h18.6c2.6,0,4.6-2.1,4.6-4.6v-69.4c0-2.6-2.1-4.6-4.6-4.6h-15.5c-2.6,0-4.6,2.1-4.6,4.6v2.8
			c0,2.6,2.1,4.6,4.6,4.6h3.4c2.6,0,4.6,2.1,4.6,4.6v45.3c0,2.6-2.1,4.6-4.6,4.6h-3.3c-1,0-1.9-0.3-2.7-0.9l-42.9-31
			c-3.1-2.2-7.3,0-7.3,3.7v2c0,1.5,0.7,2.8,1.9,3.7l45,33.6C818.4,475.9,819.3,476.2,820.3,476.2z"/>
	</g>
	<g>
		<path class="st3" d="M1037,410.3c-0.1-0.3-0.4-0.4-0.6-0.2c-2.2,1.5-3.5,2.2-5.4,3.3l0,0.3l0-0.3c0,0-8.5,4.5-18.7,8.1
			c-2.6,1-5.1,1.8-7.3,2.6c1.6-2.3,2.7-4.8,3.3-7.6c1.2-5.6,0.3-11.2-2.6-15.7c-2.9-4.7-7.8-7.9-13.5-9.2c-2.4-0.5-4.8-0.6-7.2-0.3
			c-8.8,1.2-15.9,7.8-17.8,16.4c-1.3,5.9,0.1,11.7,3.3,16.3c-10.8,3.1-17.9,10.4-18.5,14.7h0c-1,0.7-2,1.3-3,2
			c-4.8,3-9.6,6-11.6,7.2c-0.1,0-0.2,0.1-0.3,0.1c-3.3-4-4.9-9.4-4-15c1.7-10.2,11.5-17.1,21.7-15.4c1.6,0.3,3.1,0.7,4.5,1.4
			c0.4-0.6,7.9-11,0.2-20.3c-2.7-3.3-6.6-5.6-10.8-6.3c-0.1,0-0.1,0-0.2,0c-17.6-2.9-34.2,8.9-37.1,26.5c-2.4,14.2,4.9,27.8,17.1,34
			c-6.3,3.4-12,6.3-18.7,10.1c0,0,0,0-0.1,0.1c-2.9,1.7-5,4.1-6.5,6.2c-2.2,3-1.6,7.2,1.5,9.3l0.1,0.1c0.9,0.6,2,0.3,2.5-0.7
			c0.4-0.8,3.1-7.3,4.4-10.2c0.4,0.8,0.8,1.5,1,2c0.2,0.5,0.8,0.7,1.3,0.5c10.2-3.3,17.7-3.9,23-4c0,0,0,0-0.1,0.1
			c-0.6,0.7-1.4,2.5-2.1,5c-0.4,1.4-0.5,2.4-0.5,3.2c0,0,0,0,0,0c0,0,0,0.1,0,0.1c0.1,1.6,0.8,2.3,1.9,2.2c0.1,0,0.1,0,0.1,0
			c0,0,0,0,0,0c0,0,0,0,0,0c0.7-0.1,1.5-2.7,2-4.5c0.2-0.6,0.3-1.1,0.4-1.7c0-0.1,0-0.2,0-0.2c1.4,3.1,3.9,7,8.1,8.3
			c8.1,2.5,25-19.4,25-19.4c20.1-7.2,26.7-12.3,32.4-20.6l0.5-0.8c0.2-0.1,2.2-0.9,2.3-1c10.9-5,22.5-13.6,24.3-14.9l0,0
			c0,0,3.3-2.4,5.5-5.6C1038.3,414.1,1037.4,411.4,1037,410.3z M977.5,447.6L977,441c-4.1,1.2-9.2,0.9-12.3-3.4
			c-0.3-0.4-0.1-1,0.4-1.1l0,0c2.8,4.5,8,4.3,12.2,3.2l0,0c2.9-0.8,4.9-2,6.6-3.1c0.1-0.1,0.3-0.1,0.4,0
			C986,439.7,985.2,445.6,977.5,447.6z M998.5,428.6c-1.8,1.2-3.8,2-5.8,2.6c-6.7,2.1-11.1-1.5-11.9-2.6c-0.1-0.1,0-0.2,0.1-0.2
			c1.2,0.5,5.9,2.2,9.8,0.9c-1.2-4,0.8-11.6,11.2-14c0,0,1-0.2,1.5-0.3c0,0,0,0,0,0c0,0,0.9,0,1.4-0.6c0.2-0.1,0.3-0.3,0.4-0.5
			c0.2-0.1,0.2-0.8,0.2-1c0-0.1,0-0.1,0-0.1c0,0,0,0,0,0c0-0.3,0-0.7-0.5-1.2c-0.6-0.5-2.4-1-2.6-1c-13.3-4.7-20-3.7-20.4-3.8
			c0,0,0,0,0,0c0,0,0,0,0,0c0,0,0,0,0,0c-0.1-0.3-0.5-1-0.5-1.1c-1.2-3.1-0.7-5.4-0.8-5.6c-0.5-0.6-1.6-1-2.4-0.3
			c-1.8,1.6-2.7,5.9-2.7,5.8c-0.2-1.2-0.3-3.1,0.4-6.1c0.2-1-0.2-2.1-1.1-2.3c2.9-2.5,6.4-4.2,10.4-4.7c2.2-0.3,4.5-0.2,6.7,0.3
			c5.4,1.2,10,4.2,12.7,8.6c2.7,4.3,3.6,9.6,2.5,14.8C1005.9,421.3,1002.9,425.7,998.5,428.6z"/>
	</g>
</g>
<path class="st2" d="M999.9,178.9c0,5.7-4.5,10.3-10.2,10.3c0,0,0,0,0,0c-5.7,0-10.2-4.6-10.2-10.2c0-5.7,4.6-10.2,10.2-10.2
	C995.3,168.7,999.9,173.3,999.9,178.9z M998.2,178.9c0-4.7-3.8-8.4-8.4-8.4s-8.4,3.8-8.4,8.4c0,4.6,3.7,8.4,8.3,8.4
	c4.6,0.1,8.4-3.6,8.5-8.2C998.2,179,998.2,179,998.2,178.9z M991.9,180.3l2.4,3.4h-2l-1.9-3.1h-2.8v3.1h-1.7v-10.2h4.1
	c2.7,0,4.1,1.3,4.1,3.5C994.2,178.5,993.3,179.8,991.9,180.3z M989.9,179.2c1.6,0,2.5-0.8,2.5-2.1c0-1.3-0.9-2.1-2.5-2.1h-2.4v4.2
	H989.9z"/>
<path class="st2" d="M44.3,208.1v29h69.8v29.3H44.3v29.5H124v29.3H7.1V178.9h114.5v29.3H44.3z"/>
<path class="st2" d="M140.1,325.2V170.1h36.2v155.1H140.1z"/>
<path class="st2" d="M234.5,180.1c0,11.2-7.9,19.2-19,19.2c-11.1,0-19-7.9-19-19.2c0-11.1,7.9-19,19-19
	C226.6,161.1,234.5,169.1,234.5,180.1z M197.3,325.2V212.5h36v112.7H197.3z"/>
<path class="st2" d="M322.7,212.5h39.5l-35.7,54.8l38.2,57.9h-41.6l-20.5-35.3l-23,35.3H240l38.5-57.7l-35.9-55h41.4l18.8,32.4
	L322.7,212.5z"/>
<path class="st2" d="M408.6,180.1c0,11.2-7.9,19.2-19,19.2c-11.1,0-19-7.9-19-19.2c0-11.1,7.9-19,19-19
	C400.7,161.1,408.6,169.1,408.6,180.1z M371.4,325.2V212.5h36v112.7H371.4z"/>
<path class="st2" d="M463.8,231.6c7.7-13.2,20.5-20.5,36.5-20.7v32.6c-20.9-1.9-34.7,7.9-36.5,23.8v57.9h-36.2V212.5h36.2V231.6z"/>
<path class="st2" d="M635.8,202.3l-21.5,25.5c-9.6-11.7-23.8-19.1-36.8-19.1c-23.2,0-40.8,18.4-40.8,42.4
	c0,24.5,17.6,43.1,40.8,43.1c12.3,0,26.5-6.7,36.8-17.1l21.7,23c-15.7,16.1-38.9,26.8-60.4,26.8c-44.1,0-76.9-32.4-76.9-75.2
	c0-42.2,33.7-74,78.2-74C598.6,177.6,621.2,187.2,635.8,202.3z"/>
<path class="st2" d="M755.2,268.8c0,34.7-24.7,57.7-61.4,57.7c-37,0-61.7-23-61.7-57.7s24.7-57.5,61.7-57.5
	C730.5,211.3,755.2,234,755.2,268.8z M668.4,269.2c0,17.6,10.2,29.3,25.3,29.3c14.8,0,25.1-11.7,25.1-29.3
	c0-17.3-10.2-29.3-25.1-29.3C678.7,239.9,668.4,251.8,668.4,269.2L668.4,269.2z"/>
<path class="st2" d="M880.8,254.1v71.1h-35.9v-61c0-13.2-7.7-21.3-19.9-21.3c-13.2,0-21.5,9.4-23,22.8v59.6h-36.2V212.5H802v18.4
	c7.9-13.2,20.9-19.9,37.6-20.1C864.5,210.9,880.8,227.8,880.8,254.1z"/>
<path class="st2" d="M940.1,209.4v8.2h25.5v23.8h-25.5v83.8h-35.7v-83.8h-15.3v-23.8h15.3v-10.4c0-24.9,18.8-38.7,43.1-38.7
	c11.1,0,23,2.9,31.6,7.9l-12.8,25.3c-3.8-2.8-8.4-4.4-13.2-4.6C945.8,196.9,940.1,201,940.1,209.4z"/>
<path class="st2" d="M1060.8,208.1v29h69.8v29.3h-69.8v29.5h79.6v29.3h-116.8V178.9h114.5v29.3H1060.8z"/>
<path class="st2" d="M1287.4,263.7c0,38.7-25.7,63.1-66.7,63.1c-41.2,0-67.5-24.5-67.5-63.1v-84.9h37.2v84.9c0,19.9,12.8,32,30.5,32
	c17.6,0,29.5-12.1,29.5-32v-84.9h37L1287.4,263.7z"/>
</svg>
