<?xml version="1.0" encoding="utf-8"?>
<!-- Generator: Adobe Illustrator 25.4.5, SVG Export Plug-In . SVG Version: 6.00 Build 0)  -->
<svg version="1.1" id="Layer_1" xmlns="http://www.w3.org/2000/svg" xmlns:xlink="http://www.w3.org/1999/xlink" x="0px" y="0px"
	 viewBox="0 0 426.1 555.1" style="enable-background:new 0 0 426.1 555.1;" xml:space="preserve">
<style type="text/css">
	.st0{fill:#EB4D8C;}
	.st1{fill:#F9D759;}
	.st2{fill:#9AD7D8;}
</style>
<g>
	<g>
		<path class="st0" d="M90,365.7c-35.4-26.4-56.5-70-56.5-116.5c0-2.3,0.1-4.6,0.3-7c1.7-22.8,12.7-63.1,56-125.8
			c27.1-39.3,56.9-72.8,69.3-84.6l5.3-5.1l6.3,7.2c15.2,17.2,55.6,63,86.2,113.1l-12.1,7.4c-27.8-45.6-64.2-87.8-81.2-107.1
			c-30.6,31.6-111,130.3-115.8,196c-0.2,2-0.2,4-0.2,6c0,42.1,19,81.4,50.8,105.1L90,365.7z"/>
	</g>
	<g>
		<path class="st1" d="M283.6,430.3v-14.2c56.8,0,103-50.6,103-112.8c0-28-18.1-81.7-103.3-179.1c-19.5,20.3-63.2,72.4-86.9,122.5
			l-12.8-6.1c27.1-57.2,79.2-116.7,95.2-132l5.3-5.1l6.2,7c73.4,83,110.6,147.9,110.6,192.7C400.8,373.3,348.2,430.3,283.6,430.3z"
			/>
	</g>
	<g>
		<path class="st2" d="M180.7,538.9c-61,0-110.6-53.7-110.6-119.8c0-1.9,0.1-3.9,0.2-5.9c2-28,17.9-63.7,47.2-106.1
			c22.8-33,47.9-61.2,58.3-71.2l5.3-5.1l6.1,6.9c69,78.1,104.1,139.2,104.1,181.4C291.3,485.2,241.7,538.9,180.7,538.9z
			 M180.4,251.4c-11.8,12.3-32.2,36.2-51.2,63.7c-27.4,39.7-42.9,74-44.7,99.1c-0.1,1.7-0.2,3.3-0.2,4.9
			c0,58.2,43.2,105.6,96.4,105.6c53.2,0,96.4-47.4,96.4-105.6C277.1,393,260.2,342.7,180.4,251.4z"/>
	</g>
</g>
</svg>
