<svg id="Layer_1" data-name="Layer 1" xmlns="http://www.w3.org/2000/svg" viewBox="0 0 850 850"><defs><style>.cls-1,.cls-5,.cls-6,.cls-9{fill:#fff;stroke-miterlimit:10;}.cls-1,.cls-5,.cls-9{stroke:#4b285b;}.cls-2{fill:none;}.cls-3{fill:#284c6e;}.cls-4{fill:#ff5000;}.cls-5{font-size:17.12px;font-family:Montserrat-Regular, Montserrat;}.cls-6{font-size:87.47px;stroke:#000;font-family:Montserrat-Bold, Montserrat;font-weight:700;letter-spacing:-0.04em;}.cls-7{letter-spacing:-0.06em;}.cls-8{letter-spacing:-0.06em;}.cls-9{font-size:59.94px;font-family:Montserrat-Light, Montserrat;font-weight:300;letter-spacing:-0.06em;}.cls-10{letter-spacing:-0.04em;}.cls-11{letter-spacing:-0.03em;}</style></defs><path class="cls-1" d="M424.8,822.74A397.6,397.6,0,0,1,270.08,59,397.6,397.6,0,0,1,579.53,791.5,395,395,0,0,1,424.8,822.74Zm0-789A391.6,391.6,0,0,0,272.42,786,391.6,391.6,0,0,0,577.19,64.5,389.08,389.08,0,0,0,424.8,33.74Z"/><rect class="cls-2" x="-0.2" y="0.24" width="850" height="850"/><polygon class="cls-3" points="387.32 407.65 333.88 285.73 320.28 285.73 373.93 407.65 387.32 407.65"/><polygon class="cls-4" points="459.28 407.65 512.72 285.73 526.32 285.73 472.67 407.65 459.28 407.65"/><path class="cls-1" d="M528.81,222.12,438.13,428.89H408.88l-91-206.77h31.9L424.24,392l75-169.85Z"/><text class="cls-5" transform="translate(563.93 465.82)">®</text><text class="cls-6" transform="translate(150.99 517.35)">Elixi<tspan class="cls-7" x="171.35" y="0">r</tspan><tspan class="cls-8" x="203.63" y="0">C</tspan><tspan x="262.41" y="0">onf EU</tspan></text><text class="cls-9" transform="translate(336 590.36)">V<tspan class="cls-10" x="37.4" y="0">i</tspan><tspan class="cls-11" x="50.53" y="0">r</tspan><tspan class="cls-10" x="72.53" y="0">tual</tspan></text></svg>